<svg width="141" height="143" viewBox="0 0 141 143" fill="none" xmlns="http://www.w3.org/2000/svg">
<g clip-path="url(#clip0_184_9)">
<path d="M54.2506 17.4651L9.70411 68.9102C30.4101 92.0634 51.6116 115.623 78.5936 131.03L129.466 71.7691C100.971 59.3697 77.3423 38.242 54.2506 17.4651Z" fill="white"/>
<path d="M79.5762 132.241C79.0827 132.642 78.3836 132.71 77.8163 132.386C65.5923 125.406 53.457 116.123 40.7171 104.007C29.1901 93.0449 18.2184 80.7765 8.53823 69.9522C8.01514 69.3674 8.00895 68.4841 8.52362 67.8895L53.0702 16.4445C53.3457 16.1274 53.7362 15.9332 54.1551 15.9065C54.5741 15.88 54.9857 16.023 55.2972 16.3033C78.034 36.7609 101.545 57.915 130.092 70.3369C130.546 70.5345 130.879 70.9358 130.989 71.4185C131.099 71.9012 130.974 72.408 130.651 72.7844L79.7783 132.045C79.716 132.117 79.6483 132.183 79.5762 132.241ZM11.7847 68.8908C31.6079 91.0536 52.1591 113.822 78.2545 129.029L126.914 72.3466C114.629 66.7901 102.165 59.1377 88.8821 49.0007C76.6951 39.7003 64.8894 29.1386 54.387 19.6912L11.7847 68.8908Z" fill="black"/>
<path d="M39.3452 71.4907C38.9437 71.8165 38.5008 72.0838 38.0322 72.2742C35.582 73.2697 32.9392 72.626 31.0094 72.1559C30.1715 71.9519 29.6593 71.1071 29.8654 70.2693C30.0714 69.4315 30.9177 68.9174 31.7557 69.1216C33.7208 69.6002 35.4613 69.9501 36.8612 69.3814C37.4861 69.1275 38.0644 68.451 38.2367 67.7732C38.3345 67.3885 38.2908 67.0807 38.1071 66.8582C37.733 66.4053 37.6455 65.7804 37.8806 65.2411C38.1158 64.7018 38.6338 64.3394 39.2208 64.3036C40.2607 64.2402 41.2838 63.5817 41.9574 62.5425C42.6311 61.5032 42.8137 60.3018 42.446 59.3285C42.2736 58.872 42.3249 58.3607 42.5846 57.9465C42.8445 57.5325 43.2828 57.2632 43.7694 57.2188C48.5338 56.7847 52.6118 52.2116 52.4966 47.4326C52.4758 46.5704 53.1582 45.853 54.0208 45.8303C54.8835 45.8076 55.5996 46.4882 55.6204 47.3503C55.694 50.4063 54.4795 53.5685 52.2881 56.0257C50.5068 58.0236 48.1882 59.4336 45.7462 60.0404C45.8197 61.459 45.4198 62.9391 44.5786 64.2366C43.7733 65.479 42.6491 66.4212 41.391 66.9504C41.4439 67.4588 41.403 67.9922 41.2652 68.535C40.9744 69.6804 40.2695 70.7406 39.3452 71.4907Z" fill="#F97393"/>
<path d="M53.9792 75.3089C51.7688 77.1026 48.9885 78.1769 46.1283 78.28C45.266 78.3112 44.5431 77.6376 44.514 76.7757C44.4846 75.9137 45.1602 75.1897 46.0227 75.1588C48.9671 75.0526 51.8001 73.5957 53.6014 71.2619C55.4029 68.9278 56.0926 65.8202 55.4465 62.949C55.3232 62.4007 55.5042 61.828 55.9205 61.4493C56.3345 61.0681 56.9242 60.9441 57.4585 61.1185C58.0923 61.3252 58.9802 61.0849 59.7207 60.5061C60.5725 59.8411 61.2427 58.8201 61.8918 57.8327C62.0941 57.5251 62.2647 57.2714 62.4086 57.0573C62.6337 56.7228 62.8466 56.4062 62.8927 56.2993C62.9056 56.2147 62.9055 55.9485 62.9055 55.7128C62.9055 55.2677 62.9052 54.6581 62.953 53.7281C62.9971 52.8666 63.7316 52.2025 64.5934 52.245C65.4552 52.2873 66.1179 53.0199 66.0736 53.8813C66.03 54.7308 66.0301 55.2939 66.0303 55.705C66.0306 57.1682 65.9013 57.457 65.0006 58.7961C64.8618 59.0025 64.6971 59.2471 64.5022 59.5438C63.7508 60.6871 62.9002 61.9825 61.6423 62.9648C60.7587 63.6555 59.7685 64.0917 58.7805 64.2498C58.9831 67.4168 58.0258 70.6376 56.0741 73.1664C55.4602 73.9618 54.7549 74.6798 53.9795 75.3091L53.9792 75.3089Z" fill="#F97393"/>
<path d="M54.6921 96.099C53.463 97.0964 52.0029 97.8092 50.4329 98.1353C49.5877 98.3109 48.7617 97.7686 48.588 96.9242C48.4143 96.0798 48.9586 95.2531 49.8037 95.0774C52.0069 94.62 53.9666 92.9731 54.7963 90.8817C55.6263 88.7905 55.3273 86.2524 54.0346 84.4156C53.6133 83.817 53.6656 83.0051 54.1606 82.4635C54.6556 81.9216 55.4599 81.7962 56.0945 82.1613C57.9759 83.2433 60.5027 83.0849 62.2393 81.7759C63.9747 80.4667 64.8245 78.0812 64.3026 75.9742C64.1807 75.4817 64.3061 74.9601 64.6386 74.5757C64.9711 74.1911 65.4696 73.9921 65.975 74.0416C68.6373 74.3022 71.4027 73.5129 73.5746 71.9369C73.2771 71.6634 73.094 71.2807 73.0735 70.8673C73.0469 70.3303 73.2979 69.8167 73.7396 69.5082C76.0701 67.8764 78.1262 65.9016 79.8499 63.6385C80.3731 62.9518 81.3535 62.8174 82.0396 63.3386C82.7257 63.86 82.8579 64.8395 82.3346 65.5266C80.8907 67.4226 79.237 69.1375 77.4015 70.6441C77.5936 70.8637 77.7225 71.1359 77.7682 71.4315C77.8416 71.9059 77.6924 72.3885 77.3635 72.7394C74.8593 75.413 71.2352 77.0355 67.5736 77.1992C67.573 79.9089 66.2913 82.6293 64.117 84.2681C62.4137 85.552 60.2232 86.1264 58.1018 85.9563C58.5892 87.9519 58.469 90.0909 57.7003 92.0278C57.0651 93.6283 56.0118 95.0279 54.6918 96.0991L54.6921 96.099Z" fill="#F97393"/>
<path d="M67.4808 107.749C65.9507 108.991 64.0959 109.839 62.1572 110.127C61.3033 110.253 60.51 109.664 60.3854 108.811C60.2606 107.958 60.8515 107.164 61.7054 107.037C64.0671 106.687 66.255 105.173 67.4157 103.086C68.5763 100.998 68.7061 98.3441 67.7546 96.1584C67.529 95.6405 67.6014 95.0408 67.9437 94.5902C68.2858 94.1392 68.8446 93.9082 69.4046 93.9857C71.4762 94.2717 73.6921 93.5385 75.1887 92.0742C76.6847 90.609 77.4625 88.4091 77.2188 86.3327C77.1607 85.8373 77.3429 85.3434 77.7092 85.0036C78.0757 84.6641 78.5819 84.5191 79.0717 84.6142C81.724 85.1292 84.61 84.1655 86.4241 82.1582C88.2383 80.1514 88.9057 77.1844 88.1243 74.5999C87.9317 73.9631 88.1655 73.2739 88.7042 72.882L90.856 71.321C91.5551 70.8138 92.532 70.9685 93.0376 71.6661C93.5433 72.3637 93.3848 73.3372 92.6875 73.8474L91.3837 74.7931C92.0036 78.1206 91.0201 81.7274 88.7405 84.2493C86.6311 86.5821 83.4853 87.9068 80.3531 87.8707C80.1566 90.2712 79.0906 92.6203 77.3728 94.3026C75.7559 95.8863 73.5596 96.8806 71.3017 97.1149C71.7902 99.6392 71.3943 102.353 70.146 104.598C69.475 105.805 68.5583 106.875 67.4806 107.75L67.4808 107.749Z" fill="#F97393"/>
</g>
<defs>
<clipPath id="clip0_184_9">
<rect width="94.3209" height="106.713" fill="white" transform="translate(0 59.4336) rotate(-39.059)"/>
</clipPath>
</defs>
</svg>
