<svg width="90" height="77" viewBox="0 0 90 77" fill="none" xmlns="http://www.w3.org/2000/svg">
<g clip-path="url(#clip0_184_2)">
<path d="M80.7526 0.658203C80.6738 0.658203 80.5924 0.660343 80.5079 0.664295C78.0068 0.784979 75.4626 0.964769 73.0022 1.13863L71.7884 1.22425C68.3418 1.46578 64.5648 1.74073 60.2416 2.06492L58.1509 2.22116C54.8423 2.4678 51.4209 2.723 48.0602 3.00635C45.9124 3.18762 43.7288 3.38733 41.6172 3.58079C38.9012 3.82957 36.0929 4.08658 33.3261 4.30687C31.8654 4.42311 30.3822 4.49357 28.9474 4.56157C27.4333 4.63336 25.8675 4.70761 24.3382 4.83587C18.9286 5.28913 13.9549 5.76248 9.13299 6.28259C6.99988 6.51276 4.72346 6.87201 1.96908 7.4127C1.63194 7.47873 0.542105 7.77706 0.671214 8.83621C0.906649 10.7676 1.26442 12.7276 1.61031 14.6228L1.76683 15.4821C1.97485 16.6306 2.2022 17.7978 2.42228 18.9267C2.78798 20.804 3.16622 22.7453 3.46935 24.6716C3.82118 26.9057 4.04291 29.1886 4.25721 31.3962L4.33745 32.2186C4.41835 33.0452 4.50008 33.8716 4.58197 34.6983C4.97788 38.6984 5.38733 42.8348 5.69459 46.9142C5.8516 48.9946 5.9178 51.1091 5.98153 53.1543C6.02017 54.3911 6.06029 55.6699 6.11972 56.9238C6.17767 58.1407 6.26617 59.3805 6.35152 60.5794C6.40947 61.3886 6.46908 62.2257 6.51927 63.051C6.5759 63.9844 6.63418 64.9178 6.69279 65.8511C6.87935 68.8308 7.07236 71.9118 7.19948 74.948C7.21533 75.3216 7.24786 76.0985 7.39794 76.2345C7.47157 76.3014 7.73672 76.3709 8.58188 76.3262C12.1794 76.1334 15.8369 75.9005 19.3741 75.6752C20.3992 75.61 21.4244 75.5447 22.4497 75.4801C25.0616 75.316 27.6734 75.1485 30.2851 74.9814C35.0864 74.6739 40.0513 74.3558 44.9365 74.0634C48.4307 73.8543 51.9839 73.6572 55.4198 73.4667C59.8201 73.2227 64.3701 72.9701 68.842 72.6901C72.3631 72.4696 75.9427 72.2121 79.4044 71.963C82.4607 71.7432 85.6208 71.5159 88.7318 71.3147C89.1597 71.287 89.2632 71.1897 89.2796 71.1704C89.3001 71.1466 89.364 71.04 89.329 70.6712C89.2951 70.3138 89.2522 69.947 89.1982 69.5495C88.818 66.7441 88.4339 63.9394 88.0501 61.1347C87.229 55.1386 86.3802 48.9383 85.5838 42.8341C84.3744 33.5644 82.9364 21.331 82.5486 8.90783C82.5486 8.90108 82.5482 8.89417 82.5482 8.88742C82.5482 8.25189 82.5506 7.61604 82.5527 6.98052C82.5576 5.54762 82.5629 4.066 82.541 2.61219C82.5296 1.84133 82.3727 1.32517 82.062 1.03425C81.7924 0.782015 81.3625 0.658203 80.7523 0.658203H80.7526Z" fill="white"/>
<path d="M83.2094 8.88778C83.5634 20.2299 84.7719 31.5027 86.2394 42.7495C87.4018 51.6589 88.6465 60.5577 89.8534 69.4615C89.9051 69.8433 89.9508 70.2261 89.9872 70.6095C90.0709 71.4923 89.7631 71.9082 88.7752 71.9721C82.1429 72.401 75.5172 72.9321 68.8842 73.3475C60.9176 73.8464 52.9447 74.2442 44.9768 74.721C37.4803 75.1696 29.9869 75.6665 22.4919 76.1376C17.8678 76.4282 13.2446 76.7359 8.61816 76.984C6.77711 77.0826 6.61515 76.7591 6.54052 74.9755C6.37426 71.0114 6.10102 67.0517 5.8608 63.0909C5.73681 61.045 5.55817 59.0021 5.46076 56.9553C5.30259 53.6254 5.28724 50.2861 5.03678 46.9637C4.66745 42.0639 4.16009 37.174 3.68064 32.283C3.4348 29.7754 3.20894 27.2608 2.81749 24.7741C2.33407 21.703 1.67169 18.6602 1.11744 15.5996C0.714759 13.3776 0.288963 11.1554 0.0160501 8.9161C-0.131881 7.70218 0.780304 6.97528 1.84207 6.76684C4.23175 6.29777 6.64189 5.88945 9.06228 5.62833C14.1291 5.08155 19.2045 4.60556 24.283 4.17996C27.2736 3.92921 30.2816 3.88903 33.2736 3.6508C38.1873 3.2596 43.0926 2.76468 48.0047 2.35061C52.0647 2.00831 56.1288 1.71344 60.1922 1.40852C64.0417 1.11973 67.8915 0.837367 71.7423 0.567516C74.6525 0.363687 77.5626 0.14751 80.4762 0.00674017C82.3479 -0.0836491 83.1739 0.732654 83.202 2.60267C83.2334 4.69727 83.2093 6.79269 83.2093 8.88778H83.2094ZM2.85084 9.22003C5.67853 30.9696 8.46808 52.4251 11.2632 73.9243C36.0548 71.3198 61.069 70.2188 86.135 68.8429C82.8335 47.095 79.841 25.4228 79.792 3.38276C76.1106 3.56205 72.5544 3.70052 69.0028 3.91488C60.0503 4.45557 51.0999 5.02853 42.1489 5.59244C37.2257 5.90263 32.2999 6.17939 27.3809 6.54638C22.2103 6.93198 17.0387 7.33535 11.882 7.87061C8.80059 8.19051 5.74705 8.77845 2.85067 9.22003H2.85084Z" fill="#D33030"/>
<path d="M33.9925 30.1452C34.9676 28.8885 35.8017 27.704 36.7486 26.6174C38.3139 24.8211 40.0787 23.2804 42.4877 22.678C44.8463 22.0882 46.9782 22.8918 49.0972 23.7279C51.2521 24.5783 51.2301 24.5898 52.8623 22.9174C54.6472 21.0885 56.5857 19.6082 59.3962 20.0335C61.245 20.3132 62.5039 21.4245 63.5295 22.8433C64.4209 24.0764 65.2109 25.3826 66.1166 26.7647C66.6624 25.9712 67.0828 25.289 67.5735 24.6617C68.5144 23.4589 69.7787 22.8095 71.2901 23.1222C71.9008 23.2486 72.8214 23.6681 72.8641 24.3428C72.8886 24.7276 72.3249 25.4265 71.9274 25.9186C71.2716 26.7303 70.4794 27.4381 69.8715 28.2806C69.3511 29.0021 69.0888 29.9079 68.5708 30.6319C67.4987 32.1308 65.6134 32.318 64.3428 30.9829C63.5277 30.1264 62.9391 29.0533 62.2641 28.0671C61.4916 26.9383 60.7909 25.7558 59.9559 24.6759C59.2476 23.7602 58.2505 23.6212 57.3433 24.3601C55.9718 25.4771 54.4299 26.4671 54.5995 28.6667C54.6976 29.9394 53.6523 30.8747 52.4589 30.9776C51.2058 31.0856 50.2695 30.3029 49.917 28.9346C49.819 28.5541 49.3451 27.9093 48.3682 27.5147C46.7507 26.8612 46.0756 26.5453 44.3762 26.2473C43.5479 26.1021 42.3429 26.5673 41.7044 27.1721C40.1325 28.6614 38.776 30.38 37.3626 32.0314C36.8911 32.5823 36.5557 33.2499 36.0771 33.7934C34.7054 35.3511 32.7399 35.2766 31.6435 33.5252C30.8771 32.301 30.3811 30.9111 29.7262 29.6142C28.7243 27.6303 27.8399 25.5655 26.6313 23.7129C25.0695 21.3188 23.745 21.2989 21.8337 23.4228C19.6097 25.8941 18.7501 28.2513 17.6609 31.3191C17.4217 31.993 16.9036 34.0351 16.5002 33.9766C15.8481 33.8821 16.0109 31.7786 16.2955 30.8347C17.1065 28.1456 17.9787 25.1544 19.3586 22.6007C22.0797 17.5653 26.4773 17.4164 29.7402 22.1425C31.091 24.0992 32.0285 26.3401 33.148 28.455C33.4239 28.9764 33.6764 29.5102 33.9925 30.1447V30.1452Z" fill="#D33030"/>
<path d="M58.1106 53.8378C53.5254 55.532 49.2859 55.113 45.5259 51.7663C44.3768 50.7435 44.4262 50.807 43.5564 52.056C42.5615 53.4845 41.619 55.0331 40.3262 56.1535C37.7625 58.3754 34.9898 57.9215 32.916 55.244C32.7093 54.9771 32.4649 54.7242 32.1937 54.5245C30.9021 53.5732 25.2586 52.4383 23.3231 53.155C25.0557 54.7371 27.0181 58.4356 27.0144 59.0023C27.0106 59.569 26.3138 58.865 26.1926 58.7737C24.4592 57.4682 22.7316 56.155 21.0081 54.8365C20.0754 54.1231 19.3694 53.2617 19.6651 52.0019C19.962 50.7363 21.0071 50.2007 22.1428 50.0688C26.0735 49.6124 29.8373 50.2818 33.3433 52.1258C33.9915 52.4668 34.5348 53.0997 34.9847 53.703C35.9789 55.0359 37.0283 55.3191 38.3244 54.2537C39.1677 53.5605 39.8453 52.6446 40.5075 51.7615C41.0438 51.0464 41.4121 50.2087 41.9148 49.4657C43.0253 47.824 44.5155 47.5641 46.1094 48.7314C46.7298 49.1858 47.2892 49.723 47.8823 50.2155C50.1161 52.0709 52.6689 52.7643 55.5537 52.397C56.6551 52.2567 57.7786 52.2692 58.8924 52.2595C59.2389 52.2566 59.7213 52.3104 59.9338 52.4907C60.1463 52.6708 58.7606 53.5976 58.1106 53.8376V53.8378Z" fill="#D33030"/>
</g>
<defs>
<clipPath id="clip0_184_2">
<rect width="90" height="77" fill="white"/>
</clipPath>
</defs>
</svg>
