<svg width="60" height="61" viewBox="0 0 60 61" fill="none" xmlns="http://www.w3.org/2000/svg">
<g clip-path="url(#clip0_119_1149)">
<path d="M59 7.69861V46.1986C59 46.7511 58.5525 47.1986 58 47.1986H4.625C4.0725 47.1986 3.625 46.7511 3.625 46.1986V7.69861C3.625 7.14611 4.0725 6.69861 4.625 6.69861H58C58.5525 6.69861 59 7.14611 59 7.69861Z" fill="#FFFFE8"/>
<path d="M59 7.69861V46.1986C59 46.7509 58.5522 47.1986 58 47.1986H4.625C4.07275 47.1986 3.625 46.7509 3.625 46.1986V42.1982C3.625 40.8416 4.94937 39.8715 6.23825 40.2949C26.7863 47.0455 49.3862 35.0974 46.3475 8.93711C46.2091 7.74623 47.1335 6.69861 48.3325 6.69861H58C58.5522 6.69861 59 7.14636 59 7.69861Z" fill="#FFE4D1"/>
<path d="M59 41.1986V46.1986C59 46.7509 58.5522 47.1986 58 47.1986H47.125C46.5727 47.1986 46.125 46.7509 46.125 46.1986V43.1986C46.125 41.5417 47.4681 40.1986 49.125 40.1986H58C58.5522 40.1986 59 40.6464 59 41.1986Z" fill="#FFCBB9"/>
<path d="M35.2837 34.8149C34.5371 35.476 21.5779 46.9516 20.875 47.5736V53.3236C20.875 53.8759 20.4272 54.3236 19.875 54.3236H2C1.44775 54.3236 1 53.8759 1 53.3236V43.0736C1 40.303 3.2495 38.0736 6 38.0736H20.875L31.985 30.5611C33.1308 29.788 34.6753 30.0036 35.5625 31.0624C36.5013 32.1811 36.3787 33.8449 35.2837 34.8149Z" fill="#FFCBB9"/>
<path d="M13.875 34.4486C16.8435 34.4486 19.25 32.0421 19.25 29.0736C19.25 26.1051 16.8435 23.6986 13.875 23.6986C10.9065 23.6986 8.5 26.1051 8.5 29.0736C8.5 32.0421 10.9065 34.4486 13.875 34.4486Z" fill="#FFE4D1"/>
<path d="M16.1085 26.7412C13.7838 27.0832 11.8816 28.9757 11.5399 31.3042C11.3671 32.482 9.81564 32.792 9.21951 31.7617C8.72251 30.9029 8.45626 29.8937 8.50589 28.8194C8.68864 24.854 13.0649 22.3896 16.5674 24.4205C17.5976 25.018 17.2869 26.5679 16.1085 26.7412Z" fill="#FFFFE8"/>
<path d="M34.3195 30.229C35.466 30.6002 35.6299 32.1344 34.6258 32.8007C34.6114 32.8102 23.5142 40.314 23.5 40.3237H8.625C5.87625 40.3237 3.625 42.5513 3.625 45.3237V53.3237C3.625 53.8759 3.17725 54.3237 2.625 54.3237H2C1.44775 54.3237 1 53.8759 1 53.3237V43.0737C1 40.303 3.2495 38.0737 6 38.0737H20.875L31.985 30.5612C32.7211 30.0645 33.5742 29.9879 34.3195 30.229Z" fill="#FFE4D1"/>
<path d="M59 41.1986V41.6986C59 42.2509 58.5522 42.6986 58 42.6986H51.625C49.9681 42.6986 48.625 44.0417 48.625 45.6986V46.1986C48.625 46.7509 48.1772 47.1986 47.625 47.1986H47.125C46.5727 47.1986 46.125 46.7509 46.125 46.1986V43.1986C46.125 41.5417 47.4681 40.1986 49.125 40.1986H58C58.5522 40.1986 59 40.6464 59 41.1986Z" fill="#FFE4D1"/>
<path d="M60 6.69861V47.1986C60 47.7509 59.5522 48.1986 59 48.1986H30C29.4478 48.1986 29 47.7509 29 47.1986C29 46.6464 29.4478 46.1986 30 46.1986H45.125V43.1986C45.125 40.993 46.9194 39.1986 49.125 39.1986H52.5625C53.1147 39.1986 53.5625 39.6464 53.5625 40.1986C53.5625 40.7509 53.1147 41.1986 52.5625 41.1986H49.125C48.0223 41.1986 47.125 42.0959 47.125 43.1986V46.1986H58V7.69861H4.625V31.3236C4.625 31.8759 4.17725 32.3236 3.625 32.3236C3.07275 32.3236 2.625 31.8759 2.625 31.3236V6.69861C2.625 6.14636 3.07275 5.69861 3.625 5.69861H59C59.5522 5.69861 60 6.14636 60 6.69861ZM36.329 30.4194C35.1077 28.9632 32.9997 28.668 31.4254 29.7325L20.5686 37.0736H6C2.69163 37.0736 0 39.7651 0 43.0736V54.3236C0 54.8759 0.44775 55.3236 1 55.3236C1.55225 55.3236 2 54.8759 2 54.3236V43.0736C2 40.868 3.79437 39.0736 6 39.0736H20.875C21.3125 39.0736 20.4581 39.5626 32.5456 31.3891C33.2684 30.9004 34.236 31.036 34.7965 31.7044C35.3919 32.4142 35.3149 33.4514 34.6213 34.0655L20.212 46.825C19.9977 47.0147 19.875 47.2874 19.875 47.5736V54.3236C19.875 54.8759 20.3228 55.3236 20.875 55.3236C21.4272 55.3236 21.875 54.8759 21.875 54.3236V48.0239L35.9471 35.5629C37.4582 34.225 37.6259 31.9656 36.329 30.4194ZM13.875 22.6986C17.3902 22.6986 20.25 25.5585 20.25 29.0736C20.25 32.5887 17.3902 35.4486 13.875 35.4486C10.3597 35.4486 7.5 32.5887 7.5 29.0736C7.5 25.5585 10.3597 22.6986 13.875 22.6986ZM13.875 24.6986C11.4626 24.6986 9.5 26.6612 9.5 29.0736C9.5 31.486 11.4626 33.4486 13.875 33.4486C16.2874 33.4486 18.25 31.486 18.25 29.0736C18.25 26.6612 16.2874 24.6986 13.875 24.6986ZM6.875 46.5736C6.32275 46.5736 5.875 47.0214 5.875 47.5736V54.4486C5.875 55.0009 6.32275 55.4486 6.875 55.4486C7.42725 55.4486 7.875 55.0009 7.875 54.4486V47.5736C7.875 47.0214 7.42725 46.5736 6.875 46.5736ZM48.25 17.6986H18.25C17.6978 17.6986 17.25 18.1464 17.25 18.6986C17.25 19.2509 17.6978 19.6986 18.25 19.6986H48.25C48.8022 19.6986 49.25 19.2509 49.25 18.6986C49.25 18.1464 48.8022 17.6986 48.25 17.6986ZM48.25 26.8236H41.125C40.5728 26.8236 40.125 27.2714 40.125 27.8236C40.125 28.3759 40.5728 28.8236 41.125 28.8236H48.25C48.8022 28.8236 49.25 28.3759 49.25 27.8236C49.25 27.2714 48.8022 26.8236 48.25 26.8236Z" fill="#FF4D2E"/>
</g>
<defs>
<clipPath id="clip0_119_1149">
<rect width="60" height="60" fill="white" transform="translate(0 0.573608)"/>
</clipPath>
</defs>
</svg>
