<svg width="60" height="60" viewBox="0 0 60 60" fill="none" xmlns="http://www.w3.org/2000/svg">
<g clip-path="url(#clip0_119_1108)">
<path d="M56 33H36C34.3437 33 33 34.3437 33 36V56C33 57.6562 34.3437 59 36 59H56C57.6562 59 59 57.6562 59 56V36C59 34.3437 57.6562 33 56 33Z" fill="#D1E7FF"/>
<path d="M56 1L36 1C34.3437 1 33 2.34375 33 4V24C33 25.6562 34.3437 27 36 27H56C57.6562 27 59 25.6562 59 24V4C59 2.34375 57.6562 1 56 1Z" fill="#D1E7FF"/>
<path d="M24 33H4C2.34375 33 1 34.3437 1 36L1 56C1 57.6562 2.34375 59 4 59H24C25.6562 59 27 57.6562 27 56V36C27 34.3437 25.6562 33 24 33Z" fill="#D1E7FF"/>
<path d="M50.8538 43.0038C52.1413 43.1913 52.6551 44.7726 51.7238 45.6813L50.5913 46.7851C50.2213 47.1451 50.0526 47.6651 50.1401 48.1738L50.4076 49.7326C50.6276 51.0138 49.2813 51.9926 48.1301 51.3863L46.7301 50.6513C46.2726 50.4101 45.7276 50.4101 45.2701 50.6513L43.8701 51.3863C42.7188 51.9926 41.3726 51.0138 41.5926 49.7326L41.8601 48.1738C41.9476 47.6651 41.7788 47.1451 41.4088 46.7851L40.2763 45.6813C39.3451 44.7726 39.8588 43.1913 41.1463 43.0038L42.7113 42.7763C43.2226 42.7026 43.6638 42.3813 43.8926 41.9176L44.5926 40.5001C45.1688 39.3338 46.8313 39.3338 47.4076 40.5001L48.1076 41.9176C48.3363 42.3813 48.7776 42.7026 49.2888 42.7763L50.8538 43.0038Z" fill="#D1E7FF"/>
<path d="M50.2425 9.7575C52.5883 12.1005 52.5843 15.9035 50.2425 18.2425C49.1575 19.3287 47.6575 20 46 20C42.6863 20 40 17.3137 40 14C40 10.6867 42.6849 8 46 8C47.6575 8 49.1575 8.67125 50.2425 9.7575Z" fill="#B9DCFF"/>
<path d="M20.4087 49C21.1787 50.3337 20.2162 52 18.6762 52H9.32371C7.78371 52 6.82133 50.3336 7.59133 48.9998L12.2675 40.9C13.0375 39.5662 14.9625 39.5662 15.7325 40.9L20.4087 49Z" fill="#B9DCFF"/>
<path d="M24.0326 36.25H8.5C6.84313 36.25 5.5 37.5931 5.5 39.25L5.5 57.5C5.5 58.3284 4.82838 59 4 59C2.34313 59 1 57.6569 1 56L1 36C1 34.3431 2.34313 33 4 33H24C26.2853 33 26.1348 36.25 24.0326 36.25Z" fill="#E8F3FF"/>
<path d="M56.0326 36.25H40.5C38.8431 36.25 37.5 37.5931 37.5 39.25V57.5C37.5 58.3284 36.8284 59 36 59C34.3431 59 33 57.6569 33 56V36C33 34.3431 34.3431 33 36 33H56C58.2853 33 58.1348 36.25 56.0326 36.25Z" fill="#E8F3FF"/>
<path d="M56.0326 4.25L40.5 4.25C38.8431 4.25 37.5 5.59312 37.5 7.25V25.5C37.5 26.3284 36.8284 27 36 27C34.3431 27 33 25.6569 33 24V4C33 2.34312 34.3431 1 36 1L56 1C58.2853 1 58.1348 4.25 56.0326 4.25Z" fill="#E8F3FF"/>
<path d="M15.5876 41.3671C15.2612 41.5325 14.9729 41.7938 14.7676 42.15L10.0914 50.25C9.83649 50.6924 9.77112 51.171 9.85462 51.6136C9.89262 51.815 9.73424 52 9.52937 52H9.32387C7.78412 52 6.82162 50.3334 7.59149 48.9999L12.2676 40.9C13.0376 39.5663 14.9629 39.5661 15.7326 40.9C15.8331 41.0743 15.7571 41.2813 15.5876 41.3671Z" fill="#D1E7FF"/>
<path d="M47.4076 40.5C47.6433 40.9778 47.471 40.9877 46.3926 43.1674C46.1633 43.6309 45.7226 43.9524 45.2113 44.0262L43.6463 44.2537C42.3588 44.4412 41.8451 46.0225 42.7763 46.9312L43.9088 48.0349C44.2788 48.3949 44.4462 48.9147 44.3601 49.4237C44.1708 50.5432 44.102 50.8843 44.0788 51.0824C44.0637 51.2121 43.9857 51.3254 43.8701 51.3862C42.7185 51.9917 41.3726 51.0137 41.5926 49.7324L41.8601 48.1737C41.9476 47.665 41.7788 47.1449 41.4088 46.7849L40.2763 45.6812C39.3451 44.7725 39.8588 43.1912 41.1463 43.0037L42.7113 42.7762C43.2226 42.7024 43.6638 42.3812 43.8926 41.9174L44.5926 40.5C45.1688 39.3337 46.8321 39.3333 47.4076 40.5Z" fill="#E8F3FF"/>
<path d="M42.5726 16.1861C42.7495 17.3144 41.2292 17.8229 40.6993 16.8112C38.7301 13.051 41.1116 8.66661 45.1047 8.06636C46.217 7.89911 46.6827 9.42036 45.6891 9.94749C43.4891 11.1145 42.1638 13.5794 42.5726 16.1861Z" fill="#D1E7FF"/>
<path d="M24 32H4C1.79438 32 0 33.7944 0 36L0 56C0 58.2056 1.79438 60 4 60H24C26.2056 60 28 58.2056 28 56C28 55.4478 27.5523 55 27 55C26.4478 55 26 55.4478 26 56C26 57.1028 25.1028 58 24 58H4C2.89725 58 2 57.1028 2 56L2 36C2 34.8973 2.89725 34 4 34H24C25.1028 34 26 34.8973 26 36V50.7701C26 51.3224 26.4478 51.7701 27 51.7701C27.5523 51.7701 28 51.3224 28 50.7701V36C28 33.7944 26.2056 32 24 32Z" fill="#2E58FF"/>
<path d="M56 32C55.4478 32 55 32.4478 55 33C55 33.5523 55.4478 34 56 34C57.1028 34 58 34.8973 58 36V56C58 57.1028 57.1028 58 56 58H36C34.8973 58 34 57.1028 34 56V36C34 34.8973 34.8973 34 36 34H50.254C50.8063 34 51.254 33.5523 51.254 33C51.254 32.4478 50.8063 32 50.254 32H36C33.7944 32 32 33.7944 32 36V56C32 58.2056 33.7944 60 36 60H56C58.2056 60 60 58.2056 60 56V36C60 33.7944 58.2056 32 56 32Z" fill="#2E58FF"/>
<path d="M59 7.20563C58.4478 7.20563 58 7.65338 58 8.20563V24C58 25.1028 57.1028 26 56 26H36C34.8973 26 34 25.1028 34 24V4C34 2.89725 34.8973 2 36 2L56 2C57.0319 2 57.9073 2.804 57.993 3.83038C58.0389 4.38063 58.5201 4.79038 59.0728 4.74375C59.6231 4.69788 60.032 4.21438 59.9861 3.664C59.8146 1.60938 58.0636 0 56 0L36 0C33.7944 0 32 1.79438 32 4V24C32 26.2056 33.7944 28 36 28H56C58.2056 28 60 26.2056 60 24V8.20563C60 7.65338 59.5523 7.20563 59 7.20563Z" fill="#2E58FF"/>
<path d="M46 19C44.7564 19 43.5645 18.5406 42.6439 17.7063C42.2346 17.3355 41.6023 17.3666 41.2314 17.7758C40.8605 18.185 40.8916 18.8174 41.3009 19.1883C42.5901 20.3566 44.259 21 46 21C49.8598 21 53 17.8598 53 14C53 10.1403 49.8598 7 46 7C42.1403 7 39 10.1403 39 14C39 14.5523 39.4478 15 40 15C40.5523 15 41 14.5523 41 14C41 11.243 43.243 9 46 9C48.757 9 51 11.243 51 14C51 16.757 48.757 19 46 19Z" fill="#2E58FF"/>
<path d="M13.134 41.4C13.5188 40.7336 14.4805 40.7321 14.866 41.4C15.1422 41.8784 15.7539 42.0423 16.232 41.766C16.7103 41.4899 16.8742 40.8783 16.598 40.4C15.4437 38.4005 12.5575 38.3983 11.4019 40.4L6.7254 48.5C5.5709 50.4995 7.01228 53 9.32353 53H18.6765C20.9854 53 22.4304 50.5016 21.2747 48.5L19.3104 45.0978C19.0343 44.6194 18.4225 44.4559 17.9444 44.7318C17.4661 45.0079 17.3023 45.6195 17.5784 46.0978L19.5425 49.5C19.928 50.1676 19.4462 51 18.6765 51H9.32353C8.55265 51 8.07265 50.1665 8.45753 49.5L13.134 41.4Z" fill="#2E58FF"/>
<path d="M52.4214 46.3969C53.1923 45.6455 53.4131 44.5205 52.9839 43.5309C52.7641 43.0243 52.1751 42.7916 51.6685 43.0114C51.1619 43.2311 50.9293 43.82 51.149 44.3268C51.186 44.4121 51.2865 44.7103 51.0254 44.9648L49.8933 46.0685C49.2875 46.6589 49.0113 47.509 49.1541 48.3429L49.4215 49.9014C49.5016 50.3683 49.0129 50.7213 48.5953 50.5016L47.1958 49.7659C46.4471 49.3721 45.553 49.3723 44.8044 49.7659L43.4048 50.5016C42.9863 50.7215 42.4985 50.3675 42.5785 49.9014L42.8459 48.3428C42.9889 47.509 42.7125 46.6589 42.1069 46.0686L40.9745 44.9648C40.6353 44.6341 40.8231 44.0614 41.2901 43.9935L42.855 43.7661C43.692 43.6445 44.4153 43.119 44.7896 42.3605L45.4894 40.9425C45.6983 40.5194 46.3011 40.5176 46.5108 40.9425C47.227 42.3936 47.261 42.4919 47.4325 42.7288C47.7561 43.1763 48.3813 43.2766 48.8288 42.9529C49.2763 42.6291 49.3766 42.004 49.0529 41.5566C49.0134 41.5019 49.0661 41.6013 48.3041 40.0574C47.3619 38.148 44.6378 38.149 43.6959 40.0574L42.9961 41.4753C42.9131 41.6434 42.7529 41.7599 42.5674 41.7868L41.0025 42.0141C38.8955 42.3204 38.0545 44.9114 39.5784 46.3969L40.7108 47.5008C40.845 47.6315 40.9061 47.82 40.8745 48.0048L40.6071 49.5633C40.2478 51.6586 42.452 53.262 44.3353 52.2719L45.7349 51.536C45.9008 51.4489 46.0989 51.4488 46.2649 51.536L47.6645 52.2718C49.5493 53.2624 51.7525 51.6606 51.3926 49.5631L51.1253 48.0048C51.0936 47.8199 51.1548 47.6315 51.2891 47.5006L52.4214 46.3969Z" fill="#2E58FF"/>
</g>
<defs>
<clipPath id="clip0_119_1108">
<rect width="60" height="60" fill="white"/>
</clipPath>
</defs>
</svg>
