<svg width="60" height="61" viewBox="0 0 60 61" fill="none" xmlns="http://www.w3.org/2000/svg">
<g clip-path="url(#clip0_119_1130)">
<path d="M54.5 53.5736H50.875V41.3236C50.875 40.2186 49.98 39.3236 48.875 39.3236H35.875C34.77 39.3236 33.875 40.2186 33.875 41.3236V53.5736H26.125V31.3236C26.125 30.2186 25.23 29.3236 24.125 29.3236H11.125C10.02 29.3236 9.125 30.2186 9.125 31.3236V53.5736H5.5C4.395 53.5736 3.5 54.4686 3.5 55.5736V57.5736C3.5 58.6786 4.395 59.5736 5.5 59.5736H54.5C55.605 59.5736 56.5 58.6786 56.5 57.5736V55.5736C56.5 54.4686 55.605 53.5736 54.5 53.5736Z" fill="#D1FFD2"/>
<path d="M54.531 55.5736H8.75C7.64538 55.5736 6.75 56.469 6.75 57.5736V58.3236C6.75 59.014 6.19037 59.5736 5.5 59.5736C4.39538 59.5736 3.5 58.6782 3.5 57.5736V55.5736C3.5 54.469 4.39538 53.5736 5.5 53.5736C48.5635 53.5741 54.5264 53.5717 54.6175 53.577C55.8924 53.6509 55.808 55.5736 54.531 55.5736Z" fill="#EAFFE8"/>
<path d="M50.875 41.3236V53.5736H33.875V41.3236C33.875 40.2186 34.77 39.3236 35.875 39.3236H48.875C49.98 39.3236 50.875 40.2186 50.875 41.3236Z" fill="#BBFFB9"/>
<path d="M50.875 41.3236C50.875 42.2901 50.0915 43.0736 49.125 43.0736H40.875C39.7704 43.0736 38.875 43.969 38.875 45.0736V51.8236C38.875 52.7901 38.0915 53.5736 37.125 53.5736H33.875V41.3236C33.875 40.219 34.7704 39.3236 35.875 39.3236H48.875C49.9796 39.3236 50.875 40.219 50.875 41.3236Z" fill="#D1FFD2"/>
<path d="M26.125 31.3236V53.5736H9.125V31.3236C9.125 30.2186 10.02 29.3236 11.125 29.3236H24.125C25.23 29.3236 26.125 30.2186 26.125 31.3236Z" fill="#D1FFD2"/>
<path d="M26.125 31.3236C26.125 32.2901 25.3415 33.0736 24.375 33.0736H16.125C15.0204 33.0736 14.125 33.969 14.125 35.0736V51.8236C14.125 52.7901 13.3415 53.5736 12.375 53.5736H9.125V31.3236C9.125 30.219 10.0204 29.3236 11.125 29.3236H24.125C25.2296 29.3236 26.125 30.219 26.125 31.3236Z" fill="#EAFFE8"/>
<path d="M50.875 5.57361V13.5736C50.875 15.7824 49.0837 17.5736 46.875 17.5736H37.875C35.6662 17.5736 33.875 15.7824 33.875 13.5736V5.57361C33.875 3.36486 35.6662 1.57361 37.875 1.57361H46.875C49.0837 1.57361 50.875 3.36486 50.875 5.57361Z" fill="#D1FFD2"/>
<path d="M46.9715 4.07361H41.625C39.4159 4.07361 37.625 5.86448 37.625 8.07361C37.625 8.07361 37.6259 16.1512 37.6274 16.1907C37.6576 16.966 36.872 17.5242 36.1702 17.1932C34.8137 16.5532 33.875 15.173 33.875 13.5736V5.57361C33.875 3.36448 35.6659 1.57361 37.875 1.57361C37.875 1.57361 46.9946 1.57498 47.0539 1.57748C48.6641 1.64848 48.5834 4.07361 46.9715 4.07361Z" fill="#EAFFE8"/>
<path d="M26.125 5.57361V13.5736C26.125 15.7824 24.3337 17.5736 22.125 17.5736H13.125C10.9162 17.5736 9.125 15.7824 9.125 13.5736V5.57361C9.125 3.36486 10.9162 1.57361 13.125 1.57361H22.125C24.3337 1.57361 26.125 3.36486 26.125 5.57361Z" fill="#D1FFD2"/>
<path d="M22.2215 4.07361H16.875C14.6659 4.07361 12.875 5.86448 12.875 8.07361C12.875 8.07361 12.8759 16.1512 12.8774 16.1907C12.9076 16.966 12.122 17.5242 11.4202 17.1932C10.0637 16.5532 9.125 15.173 9.125 13.5736V5.57361C9.125 3.36448 10.9159 1.57361 13.125 1.57361C13.125 1.57361 22.2446 1.57498 22.3039 1.57748C23.9141 1.64848 23.8334 4.07361 22.2215 4.07361Z" fill="#EAFFE8"/>
<path d="M54.5 52.5736H34.875V41.3236C34.875 40.7722 35.3236 40.3236 35.875 40.3236H48.875C49.4264 40.3236 49.875 40.7722 49.875 41.3236V48.8115C49.875 49.3637 50.3228 49.8115 50.875 49.8115C51.4272 49.8115 51.875 49.3637 51.875 48.8115V41.3236C51.875 39.6694 50.5293 38.3236 48.875 38.3236H35.875C34.2208 38.3236 32.875 39.6694 32.875 41.3236V52.5736H27.125V31.3236C27.125 29.6695 25.7791 28.3236 24.125 28.3236H11.125C9.47087 28.3236 8.125 29.6695 8.125 31.3236V48.7872C8.125 49.3395 8.57275 49.7872 9.125 49.7872C9.67725 49.7872 10.125 49.3395 10.125 48.7872V31.3236C10.125 30.7722 10.5736 30.3236 11.125 30.3236H24.125C24.6764 30.3236 25.125 30.7722 25.125 31.3236V53.5736C25.125 54.1259 25.5728 54.5736 26.125 54.5736H54.5C55.0514 54.5736 55.5 55.0222 55.5 55.5736V57.5736C55.5 58.125 55.0514 58.5736 54.5 58.5736H5.5C4.94863 58.5736 4.5 58.125 4.5 57.5736V55.5736C4.5 55.0222 4.94863 54.5736 5.5 54.5736H20.4476C20.9999 54.5736 21.4476 54.1259 21.4476 53.5736C21.4476 53.0214 20.9999 52.5736 20.4476 52.5736H5.5C3.84575 52.5736 2.5 53.9194 2.5 55.5736V57.5736C2.5 59.2279 3.84575 60.5736 5.5 60.5736H54.5C56.1543 60.5736 57.5 59.2279 57.5 57.5736V55.5736C57.5 53.9194 56.1543 52.5736 54.5 52.5736Z" fill="#2EFF38"/>
<path d="M17.625 13.9486C18.1772 13.9486 18.625 13.5009 18.625 12.9486V8.56026L19.8855 9.68813C20.0764 9.85888 20.3146 9.94288 20.552 9.94288C21.4662 9.94288 21.9015 8.80826 21.2191 8.19763C18.5651 5.82276 18.3299 5.61176 18.2761 5.56563C17.944 5.28038 17.461 5.24226 17.0872 5.48151C16.9821 5.54888 17.1944 5.36701 14.031 8.19763C13.6194 8.56588 13.5842 9.19801 13.9526 9.60963C14.3209 10.0213 14.953 10.0564 15.3646 9.68801L16.625 8.56026V12.9486C16.625 13.5009 17.0727 13.9486 17.625 13.9486Z" fill="#2EFF38"/>
<path d="M13.125 18.5736H16.625V24.3236C16.625 24.8759 17.0728 25.3236 17.625 25.3236C18.1772 25.3236 18.625 24.8759 18.625 24.3236V17.5736C18.625 17.0214 18.1772 16.5736 17.625 16.5736H13.125C11.4707 16.5736 10.125 15.2279 10.125 13.5736V5.57361C10.125 3.91936 11.4707 2.57361 13.125 2.57361H22.125C23.7793 2.57361 25.125 3.91936 25.125 5.57361V13.5736C25.125 14.7951 24.3951 15.8847 23.2655 16.3495C22.7547 16.5596 22.511 17.144 22.7213 17.6547C22.9315 18.1656 23.5161 18.4091 24.0265 18.199C25.9088 17.4246 27.125 15.609 27.125 13.5736V5.57361C27.125 2.81661 24.882 0.573608 22.125 0.573608H13.125C10.368 0.573608 8.125 2.81661 8.125 5.57361V13.5736C8.125 16.3306 10.368 18.5736 13.125 18.5736Z" fill="#2EFF38"/>
<path d="M42.375 5.32361C41.8228 5.32361 41.375 5.77136 41.375 6.32361V10.712L40.1145 9.58411C39.7029 9.21573 39.0706 9.25098 38.7025 9.66248C38.3343 10.0741 38.3694 10.7062 38.7809 11.0745L41.7081 13.6937C42.0095 13.963 42.4543 14.0309 42.8309 13.8377C42.9971 13.7525 42.8058 13.905 45.969 11.0745C46.3806 10.7062 46.4158 10.0741 46.0474 9.66248C45.6793 9.25098 45.0471 9.21586 44.6354 9.58411L43.375 10.712V6.32361C43.375 5.77136 42.9273 5.32361 42.375 5.32361Z" fill="#2EFF38"/>
<path d="M37.875 18.5736H41.375V34.3236C41.375 34.8759 41.8228 35.3236 42.375 35.3236C42.9272 35.3236 43.375 34.8759 43.375 34.3236V17.5736C43.375 17.0214 42.9272 16.5736 42.375 16.5736H37.875C36.2207 16.5736 34.875 15.2279 34.875 13.5736V5.57361C34.875 3.91936 36.2207 2.57361 37.875 2.57361H46.875C48.5293 2.57361 49.875 3.91936 49.875 5.57361V13.5736C49.875 14.9927 48.868 16.2287 47.4806 16.5127C46.9395 16.6235 46.5907 17.1519 46.7015 17.6929C46.8123 18.2339 47.3411 18.5831 47.8816 18.472C50.1955 17.9985 51.875 15.9385 51.875 13.5736V5.57361C51.875 2.81661 49.632 0.573608 46.875 0.573608H37.875C35.118 0.573608 32.875 2.81661 32.875 5.57361V13.5736C32.875 16.3306 35.118 18.5736 37.875 18.5736Z" fill="#2EFF38"/>
</g>
<defs>
<clipPath id="clip0_119_1130">
<rect width="60" height="60" fill="white" transform="translate(0 0.573608)"/>
</clipPath>
</defs>
</svg>
