<svg width="52" height="52" viewBox="0 0 52 52" fill="none" xmlns="http://www.w3.org/2000/svg">
<rect width="52" height="52" rx="26" fill="#68CB1D"/>
<g clip-path="url(#clip0_119_1051)">
<path d="M40.9749 31.85C40.5249 30.85 39.2999 30.45 38.2999 30.875L37.4249 31.25L37.2499 30.9C36.8249 29.875 35.6499 29.4 34.6249 29.85L29.4249 32.125C29.2249 31.8 28.9249 31.55 28.5499 31.375L22.0999 28.475C19.5999 27.35 16.6749 27.7 14.4999 29.375L13.5249 30.125L13.2749 30.375V37.825L13.4999 37.7C14.3249 37.225 15.3499 37.2 16.1999 37.625L21.7499 40.4C23.0499 41.025 24.5499 41.075 25.8999 40.5L39.9999 34.55C40.9749 34.1 41.4499 32.875 40.9749 31.85Z" fill="white"/>
<path d="M22 16H17.5V24.25H22V16Z" fill="white"/>
<path d="M30.5 26.75V11H26V25.5L30.5 26.75Z" fill="white"/>
<path d="M38.5 16H34V26.75H38.5V16Z" fill="white"/>
<path d="M10.25 39.125H13.25V30.375H11C10.575 30.375 10.25 30.7 10.25 31.125V39.125Z" fill="white"/>
<path d="M41.7 31.625C41.425 30.95 40.875 30.425 40.2 30.15C39.525 29.875 38.775 29.875 38.1 30.175L37.8 30.3C37.1 29.125 35.65 28.625 34.35 29.175L31.45 30.4C31.075 30.55 30.9 31 31.05 31.375C31.175 31.65 31.45 31.825 31.75 31.825C31.85 31.825 31.95 31.8 32.05 31.775L34.95 30.55C35.475 30.325 36.05 30.5 36.4 30.9L30.525 33.4C30.6 32.275 30 31.175 28.9 30.7L22.4 27.8C19.65 26.575 16.45 26.95 14.05 28.775L13.075 29.525C13.05 29.55 13.025 29.575 13 29.6L12.75 29.85C12.6 30 12.525 30.175 12.525 30.375V38.375H11C10.575 38.375 10.25 38.7 10.25 39.125C10.25 39.55 10.575 39.875 11 39.875H13.25C13.675 39.875 14 39.55 14 39.125V30.675L14.95 29.95C16.925 28.45 19.525 28.15 21.8 29.15L28.25 32.05C28.55 32.175 28.8 32.425 28.9 32.75C29 33.075 29 33.4 28.875 33.7C28.75 34 28.5 34.225 28.2 34.35C27.9 34.475 27.55 34.45 27.25 34.325L22.25 32.1C21.875 31.925 21.425 32.1 21.25 32.475C21.075 32.85 21.25 33.3 21.625 33.475L26.625 35.7C27.3 36 28.05 36.025 28.725 35.75C28.825 35.725 28.925 35.675 29 35.625C29.05 35.625 29.075 35.6 29.1 35.6L38.65 31.55C38.95 31.425 39.3 31.425 39.6 31.55C39.9 31.675 40.15 31.925 40.275 32.225C40.4 32.525 40.4 32.875 40.275 33.175C40.15 33.475 39.9 33.725 39.6 33.85L25.5 39.8C24.375 40.275 23.075 40.25 21.975 39.7L16.025 36.8C15.65 36.625 15.2 36.775 15.025 37.15C14.85 37.525 15 37.975 15.375 38.15L21.325 41.05C22.125 41.45 22.975 41.625 23.85 41.625C24.6 41.625 25.375 41.475 26.1 41.175L40.2 35.225C40.875 34.95 41.4 34.4 41.675 33.725C41.975 33.05 41.975 32.3 41.7 31.625Z" fill="#444B54"/>
<path d="M22 24.25C21.575 24.25 21.25 23.925 21.25 23.5V16.75H18.25V23.5C18.25 23.925 17.925 24.25 17.5 24.25C17.075 24.25 16.75 23.925 16.75 23.5V16C16.75 15.575 17.075 15.25 17.5 15.25H22C22.425 15.25 22.75 15.575 22.75 16V23.5C22.75 23.925 22.425 24.25 22 24.25Z" fill="#71C2FF"/>
<path d="M30.5 26.75C30.075 26.75 29.75 26.425 29.75 26V11.75H26.75V24.75C26.75 25.175 26.425 25.5 26 25.5C25.575 25.5 25.25 25.175 25.25 24.75V11C25.25 10.575 25.575 10.25 26 10.25H30.5C30.925 10.25 31.25 10.575 31.25 11V26C31.25 26.425 30.925 26.75 30.5 26.75Z" fill="#71C2FF"/>
<path d="M38.5 26.75C38.075 26.75 37.75 26.425 37.75 26V16.75H34.75V26C34.75 26.425 34.425 26.75 34 26.75C33.575 26.75 33.25 26.425 33.25 26V16C33.25 15.575 33.575 15.25 34 15.25H38.5C38.925 15.25 39.25 15.575 39.25 16V26C39.25 26.425 38.925 26.75 38.5 26.75Z" fill="#71C2FF"/>
</g>
<defs>
<clipPath id="clip0_119_1051">
<rect width="32" height="32" fill="white" transform="translate(10 10)"/>
</clipPath>
</defs>
</svg>
