<svg width="52" height="52" viewBox="0 0 52 52" fill="none" xmlns="http://www.w3.org/2000/svg">
<rect width="52" height="52" rx="26" fill="#709FF7"/>
<path d="M15.1199 15.12C13.6844 15.12 12.5599 16.2445 12.5599 17.68V31.76C12.5599 32.2323 12.6911 32.6643 12.9049 33.04H11.2799C10.926 33.04 10.6399 33.3261 10.6399 33.68C10.6399 35.4445 12.0754 36.88 13.8399 36.88H38.1599C39.9244 36.88 41.3599 35.4445 41.3599 33.68C41.3599 33.3261 41.0738 33.04 40.7199 33.04H39.0949C39.3087 32.6643 39.4399 32.2323 39.4399 31.76V17.68C39.4399 16.2445 38.3154 15.12 36.8799 15.12H15.1199ZM15.1199 16.4H36.8799C37.6101 16.4 38.1599 16.9498 38.1599 17.68V31.76C38.1599 32.4902 37.6101 33.04 36.8799 33.04H15.1199C14.3897 33.04 13.8399 32.4902 13.8399 31.76V17.68C13.8399 16.9498 14.3897 16.4 15.1199 16.4ZM26.9586 19.5912C26.8111 19.5919 26.6682 19.6435 26.5543 19.7373C26.4404 19.8312 26.3625 19.9615 26.3336 20.1062L24.4136 29.0662C24.3961 29.1485 24.3948 29.2334 24.4101 29.3161C24.4253 29.3988 24.4567 29.4777 24.5024 29.5483C24.5481 29.6189 24.6073 29.6798 24.6766 29.7275C24.7459 29.7752 24.8239 29.8088 24.9061 29.8264C24.9884 29.844 25.0733 29.8452 25.156 29.8299C25.2387 29.8147 25.3176 29.7833 25.3882 29.7375C25.4588 29.6918 25.5196 29.6326 25.5673 29.5633C25.615 29.494 25.6486 29.416 25.6661 29.3337L27.5861 20.3737C27.6076 20.2797 27.6075 20.182 27.586 20.088C27.5644 19.994 27.5218 19.9061 27.4615 19.8309C27.4011 19.7556 27.3246 19.695 27.2375 19.6535C27.1504 19.612 27.0551 19.5907 26.9586 19.5912ZM21.5436 21.5125C21.4395 21.5095 21.3363 21.532 21.2428 21.5779C21.1494 21.6239 21.0686 21.692 21.0074 21.7762L18.7999 24.72L21.0074 27.6637C21.1092 27.7997 21.2608 27.8896 21.4289 27.9137C21.5969 27.9379 21.7677 27.8943 21.9036 27.7925C22.0396 27.6907 22.1295 27.5391 22.1536 27.371C22.1778 27.203 22.1342 27.0322 22.0324 26.8962L20.3999 24.72L22.0324 22.5437C22.1046 22.4503 22.1496 22.3386 22.1623 22.2211C22.175 22.1037 22.155 21.985 22.1044 21.8782C22.0538 21.7714 21.9746 21.6807 21.8756 21.6162C21.7767 21.5516 21.6618 21.5158 21.5436 21.5125ZM30.4374 21.5137C30.3211 21.5204 30.2088 21.5587 30.1127 21.6245C30.0166 21.6903 29.9402 21.7811 29.8918 21.887C29.8435 21.993 29.825 22.1102 29.8383 22.2259C29.8516 22.3416 29.8962 22.4515 29.9674 22.5437L31.5999 24.72L29.9674 26.8962C29.917 26.9635 29.8804 27.0401 29.8595 27.1216C29.8387 27.203 29.8342 27.2878 29.8461 27.371C29.8581 27.4543 29.8863 27.5343 29.9292 27.6066C29.9721 27.6789 30.0288 27.7421 30.0961 27.7925C30.1634 27.8429 30.24 27.8795 30.3215 27.9003C30.4029 27.9211 30.4877 27.9257 30.5709 27.9137C30.6542 27.9018 30.7342 27.8736 30.8065 27.8307C30.8788 27.7878 30.942 27.731 30.9924 27.6637L33.1999 24.72L30.9924 21.7762C30.9293 21.6895 30.8454 21.62 30.7484 21.5741C30.6514 21.5282 30.5445 21.5075 30.4374 21.5137ZM12.0299 34.32H15.1199H36.8799H39.9699C39.7056 35.065 38.9945 35.6 38.1599 35.6H13.8399C13.0053 35.6 12.2942 35.065 12.0299 34.32Z" fill="black"/>
</svg>
