<svg width="24" height="24" viewBox="0 0 24 24" fill="none" xmlns="http://www.w3.org/2000/svg">
<path d="M11.6659 2.00491C6.61994 2.16991 2.37393 6.25091 2.02493 11.2879C1.65593 16.6169 5.46693 21.1199 10.5059 21.8769V14.6499H8.89193C8.16594 14.6499 7.57793 14.0619 7.57793 13.3359C7.57793 12.6099 8.16594 12.0219 8.89193 12.0219H10.5049V10.2729C10.5049 7.37691 11.9159 6.10591 14.3229 6.10591C14.6799 6.10591 14.9849 6.11391 15.2439 6.12691C15.8799 6.15791 16.3729 6.68791 16.3729 7.32491C16.3729 7.98791 15.8359 8.52491 15.1729 8.52491H14.7309C13.7089 8.52491 13.3519 9.49391 13.3519 10.5859V12.0229H15.2219C15.8129 12.0229 16.2649 12.5499 16.1749 13.1339L16.0669 13.8349C15.9939 14.3049 15.5899 14.6519 15.1139 14.6519H13.3519V21.8989C18.2349 21.2359 21.9999 17.0619 21.9999 11.9999C21.9999 6.36591 17.3409 1.82091 11.6659 2.00491Z" fill="#BAC5DC"/>
</svg>
