<svg width="52" height="52" viewBox="0 0 52 52" fill="none" xmlns="http://www.w3.org/2000/svg">
<rect width="52" height="52" rx="26" fill="#F7A470"/>
<path d="M37.4561 11.8563C36.7483 11.8563 36.087 12.1279 35.5949 12.62L35.0711 13.1438L35.0686 13.1425C34.8254 13.0145 34.5184 13.0527 34.3136 13.2575L25.4236 22.1475L16.0036 12.7388C15.946 12.6812 15.8878 12.6369 15.8174 12.6113C14.499 12.0097 12.957 12.3483 12.0674 13.4363C11.293 14.3707 11.1581 15.7024 11.7149 16.8288C11.7405 16.8864 11.7849 16.9438 11.8361 16.995L21.2061 26.365L14.2174 33.3538C14.1534 33.4178 14.1019 33.5006 14.0699 33.5838L11.9586 39.2163C11.8754 39.4531 11.9321 39.7158 12.1049 39.895C12.2265 40.0166 12.3935 40.08 12.5599 40.08C12.6367 40.08 12.7132 40.0669 12.7836 40.0413L18.4161 37.93C18.4993 37.898 18.5821 37.8465 18.6461 37.7825L25.6349 30.7938L26.3586 31.5163C26.3778 31.5355 26.3969 31.5547 26.4161 31.5675L30.3386 34.665C30.3834 34.697 30.4287 34.7296 30.4799 34.7488C30.6719 34.832 30.864 34.8891 31.0624 34.9275C31.0662 34.9282 31.0698 34.9281 31.0736 34.9288C31.073 34.948 31.0642 34.9646 31.0649 34.9838C31.0943 35.8407 31.3261 37.4563 32.5536 38.6563C33.5156 39.5971 34.8476 40.0688 36.2774 40.0688C37.6636 40.0688 39.1426 39.6265 40.4674 38.7375C40.7189 38.5692 40.8319 38.2568 40.7474 37.9663C40.6635 37.6757 40.4001 37.4727 40.0974 37.465C39.4695 37.4484 38.9665 37.2865 38.6036 36.985C38.1345 36.5946 37.9949 36.0358 37.8336 35.3875C37.65 34.6502 37.4436 33.8141 36.6999 33.1588C36.0554 32.5904 35.1498 32.3271 34.0324 32.345V32.3363C34.0196 32.0291 33.9493 31.7221 33.8149 31.4213C33.7893 31.3701 33.7631 31.3261 33.7311 31.2813L30.6336 27.3513C30.6144 27.3321 30.6016 27.313 30.5824 27.2938L29.8586 26.57L38.7424 17.6875C38.9664 17.4635 38.9917 17.111 38.8061 16.855L38.8049 16.8525L39.3161 16.3413C40.3427 15.3153 40.3427 13.6472 39.3161 12.6213C38.8246 12.1278 38.164 11.8563 37.4561 11.8563ZM37.4561 13.1488C37.8085 13.1488 38.1603 13.2748 38.4111 13.525C38.9295 14.0434 38.9295 14.9173 38.4111 15.435L37.9061 15.9413L35.9949 14.03L36.4999 13.525C36.7504 13.2748 37.1037 13.1488 37.4561 13.1488ZM14.6011 13.5988C14.7971 13.6124 14.9932 13.6561 15.1836 13.7313L24.5149 23.0563L25.4236 23.9588L28.0411 26.5763L28.9499 27.4788L29.4986 28.0263C29.4628 28.3514 29.3351 28.9456 28.8736 29.4825C28.2445 30.216 27.4083 30.3711 27.0774 30.4038C27.0697 30.4044 27.0638 30.4094 27.0561 30.41L26.5374 29.8913L25.6349 28.9888L23.0174 26.3713L22.1086 25.4625L12.8161 16.17C12.5345 15.5172 12.6236 14.775 13.0524 14.2438C13.4316 13.7878 14.0131 13.558 14.6011 13.5988ZM34.7674 14.615L37.3849 17.2325L35.6386 18.985L35.6361 18.9875L33.0186 16.37L33.0211 16.3675L34.7674 14.615ZM32.1136 17.275L34.7311 19.8925L34.7299 19.895L28.9499 25.6675L26.3324 23.05L32.1124 17.2763L32.1136 17.275ZM22.1149 27.2738L24.7324 29.8913L18.1611 36.4563L17.6799 35.975V34.96C17.6799 34.6061 17.3938 34.32 17.0399 34.32H16.0249L15.5436 33.8388L22.1149 27.2738ZM30.4924 29.2475L32.6686 32.0038C32.8478 32.4838 32.7517 33.0019 32.4061 33.3475C32.0669 33.6867 31.5424 33.7894 31.0624 33.6038L28.2811 31.4125C28.7842 31.218 29.3553 30.889 29.8461 30.3175C30.1175 30.0014 30.333 29.6373 30.4924 29.2475ZM34.3811 33.725C34.9859 33.758 35.4564 33.9166 35.7799 34.2013C36.1978 34.5699 36.3306 35.1049 36.4849 35.7238C36.6775 36.4969 36.8963 37.3728 37.7161 38.055C37.8486 38.1657 37.9901 38.2642 38.1399 38.3525C36.4048 38.9381 34.6001 38.7127 33.5261 37.6638C32.6455 36.8023 32.4766 35.5852 32.4549 34.9363C32.4536 34.8908 32.4332 34.8535 32.4236 34.8113C32.4281 34.8093 32.4342 34.8088 32.4386 34.8075C32.765 34.6923 33.0589 34.4996 33.3149 34.25C33.4685 34.09 33.6025 33.9169 33.7049 33.7313L33.7061 33.73C33.7151 33.73 33.7234 33.7344 33.7324 33.7338C33.9636 33.7166 34.1795 33.714 34.3811 33.725ZM14.9036 35.0088L15.3074 35.4125C15.4271 35.5328 15.5896 35.6 15.7599 35.6H16.3999V36.24C16.3999 36.4103 16.4671 36.5728 16.5874 36.6925L16.9911 37.0963L16.9886 37.0975L14.5311 38.0188L13.9811 37.4688L14.9024 35.0113L14.9036 35.0088Z" fill="black"/>
</svg>
