<svg width="32" height="32" viewBox="0 0 32 32" fill="none" xmlns="http://www.w3.org/2000/svg">
<path d="M3.99978 6.66667C3.8231 6.66417 3.64768 6.69681 3.48373 6.7627C3.31977 6.82858 3.17054 6.92639 3.04471 7.05045C2.91889 7.17451 2.81897 7.32234 2.75078 7.48535C2.68258 7.64836 2.64746 7.8233 2.64746 8C2.64746 8.1767 2.68258 8.35164 2.75078 8.51465C2.81897 8.67766 2.91889 8.82549 3.04471 8.94955C3.17054 9.07361 3.31977 9.17142 3.48373 9.23731C3.64768 9.30319 3.8231 9.33583 3.99978 9.33333H27.9998C28.1765 9.33583 28.3519 9.30319 28.5158 9.23731C28.6798 9.17142 28.829 9.07361 28.9549 8.94955C29.0807 8.82549 29.1806 8.67766 29.2488 8.51465C29.317 8.35164 29.3521 8.1767 29.3521 8C29.3521 7.8233 29.317 7.64836 29.2488 7.48535C29.1806 7.32234 29.0807 7.17451 28.9549 7.05045C28.829 6.92639 28.6798 6.82858 28.5158 6.7627C28.3519 6.69681 28.1765 6.66417 27.9998 6.66667H3.99978ZM3.99978 14.6667C3.8231 14.6642 3.64768 14.6968 3.48373 14.7627C3.31977 14.8286 3.17054 14.9264 3.04471 15.0505C2.91889 15.1745 2.81897 15.3223 2.75078 15.4854C2.68258 15.6484 2.64746 15.8233 2.64746 16C2.64746 16.1767 2.68258 16.3516 2.75078 16.5146C2.81897 16.6777 2.91889 16.8255 3.04471 16.9495C3.17054 17.0736 3.31977 17.1714 3.48373 17.2373C3.64768 17.3032 3.8231 17.3358 3.99978 17.3333H27.9998C28.1765 17.3358 28.3519 17.3032 28.5158 17.2373C28.6798 17.1714 28.829 17.0736 28.9549 16.9495C29.0807 16.8255 29.1806 16.6777 29.2488 16.5146C29.317 16.3516 29.3521 16.1767 29.3521 16C29.3521 15.8233 29.317 15.6484 29.2488 15.4854C29.1806 15.3223 29.0807 15.1745 28.9549 15.0505C28.829 14.9264 28.6798 14.8286 28.5158 14.7627C28.3519 14.6968 28.1765 14.6642 27.9998 14.6667H3.99978ZM3.99978 22.6667C3.8231 22.6642 3.64768 22.6968 3.48373 22.7627C3.31977 22.8286 3.17054 22.9264 3.04471 23.0505C2.91889 23.1745 2.81897 23.3223 2.75078 23.4854C2.68258 23.6484 2.64746 23.8233 2.64746 24C2.64746 24.1767 2.68258 24.3516 2.75078 24.5146C2.81897 24.6777 2.91889 24.8255 3.04471 24.9495C3.17054 25.0736 3.31977 25.1714 3.48373 25.2373C3.64768 25.3032 3.8231 25.3358 3.99978 25.3333H27.9998C28.1765 25.3358 28.3519 25.3032 28.5158 25.2373C28.6798 25.1714 28.829 25.0736 28.9549 24.9495C29.0807 24.8255 29.1806 24.6777 29.2488 24.5146C29.317 24.3516 29.3521 24.1767 29.3521 24C29.3521 23.8233 29.317 23.6484 29.2488 23.4854C29.1806 23.3223 29.0807 23.1745 28.9549 23.0505C28.829 22.9264 28.6798 22.8286 28.5158 22.7627C28.3519 22.6968 28.1765 22.6642 27.9998 22.6667H3.99978Z" fill="black"/>
</svg>
