<svg width="52" height="52" viewBox="0 0 52 52" fill="none" xmlns="http://www.w3.org/2000/svg">
<rect width="52" height="52" rx="26" fill="#F7A470"/>
<path d="M16.56 16.08C16.5329 16.0801 16.5064 16.087 16.4828 16.1002C16.4592 16.1133 16.4393 16.1321 16.425 16.155H16.4243L15.4712 17.68H14.8C13.9177 17.68 13.2 18.3978 13.2 19.28V33.36C13.2 34.2423 13.9177 34.96 14.8 34.96H24.2018C24.4037 35.3015 24.9385 35.92 26.16 35.92C27.3814 35.92 27.9162 35.3015 28.1181 34.96H37.52C38.4022 34.96 39.12 34.2423 39.12 33.36V19.28C39.12 18.3978 38.4022 17.68 37.52 17.68H36.8487L35.9006 16.1631C35.899 16.1604 35.8973 16.1577 35.8956 16.155C35.8812 16.1321 35.8612 16.1131 35.8374 16.1C35.8137 16.0869 35.7871 16.08 35.76 16.08C32.2254 16.08 29.8087 16.5622 28.2718 17.0475C26.8748 17.4887 26.2724 17.8969 26.16 17.9756C26.0475 17.8969 25.4451 17.4887 24.0481 17.0475C22.5112 16.5622 20.0945 16.08 16.56 16.08ZM16.72 16.4056C20.1311 16.421 22.4736 16.8857 23.9518 17.3525C25.2533 17.7635 25.8541 18.1456 26 18.2456V29.04C25.9997 29.0612 26.0036 29.0823 26.0115 29.1019C26.0194 29.1216 26.0311 29.1395 26.046 29.1546C26.0609 29.1697 26.0786 29.1817 26.0982 29.1899C26.1178 29.1981 26.1387 29.2023 26.16 29.2023C26.1812 29.2023 26.2021 29.1981 26.2217 29.1899C26.2413 29.1817 26.259 29.1697 26.2739 29.1546C26.2888 29.1395 26.3005 29.1216 26.3084 29.1019C26.3163 29.0823 26.3203 29.0612 26.32 29.04V18.2456C26.4658 18.1456 27.0666 17.7635 28.3681 17.3525C29.8463 16.8857 32.1888 16.421 35.6 16.4056V31.1256C32.1589 31.141 29.7851 31.6101 28.2737 32.0875C28.2535 32.0937 28.2347 32.1039 28.2184 32.1174C28.2021 32.1309 28.1887 32.1475 28.1789 32.1662C28.169 32.1849 28.163 32.2054 28.1612 32.2265C28.1593 32.2476 28.1617 32.2688 28.1681 32.289C28.1745 32.3091 28.1848 32.3278 28.1985 32.3439C28.2121 32.3601 28.2289 32.3734 28.2477 32.383C28.2665 32.3926 28.2871 32.3984 28.3082 32.4001C28.3293 32.4017 28.3505 32.3991 28.3706 32.3925C29.8623 31.9213 32.222 31.4482 35.6856 31.4413L37.0181 33.04H27.7587H26.2081C26.0929 32.9596 25.4415 32.5276 24.0481 32.0875C22.5363 31.6101 20.1608 31.141 16.72 31.1256V16.4056ZM16.4 16.7981V31.2219L15.12 32.7575V18.8456L16.4 16.7981ZM35.92 16.7981L37.2 18.8456V32.7575L35.92 31.2219V16.7981ZM18.4725 18C18.4304 18.0004 18.3902 18.0174 18.3605 18.0472C18.3309 18.077 18.3142 18.1173 18.314 18.1594C18.3138 18.2015 18.3302 18.2419 18.3596 18.272C18.3891 18.302 18.4291 18.3193 18.4712 18.32C19.6969 18.3865 20.7505 18.5232 21.6506 18.6919C21.6716 18.6966 21.6933 18.6971 21.7144 18.6932C21.7356 18.6893 21.7558 18.6813 21.7737 18.6694C21.7917 18.6576 21.8071 18.6423 21.819 18.6244C21.8309 18.6064 21.8391 18.5863 21.843 18.5652C21.847 18.544 21.8466 18.5223 21.842 18.5013C21.8373 18.4803 21.8285 18.4605 21.816 18.4429C21.8036 18.4254 21.7877 18.4106 21.7693 18.3994C21.751 18.3881 21.7306 18.3807 21.7093 18.3775C20.7957 18.2063 19.7283 18.0673 18.4887 18C18.4833 17.9997 18.4779 17.9997 18.4725 18ZM33.8312 18C30.9062 18.1593 28.9292 18.714 27.705 19.1613C27.6852 19.1685 27.6671 19.1795 27.6516 19.1938C27.6361 19.208 27.6236 19.2251 27.6148 19.2442C27.6059 19.2632 27.6009 19.2839 27.6 19.3049C27.5991 19.3259 27.6024 19.3468 27.6096 19.3666C27.6168 19.3863 27.6279 19.4045 27.6421 19.4199C27.6563 19.4354 27.6735 19.4479 27.6925 19.4568C27.7116 19.4656 27.7322 19.4706 27.7532 19.4715C27.7742 19.4724 27.7952 19.4691 27.815 19.4619C29.0151 19.0234 30.9561 18.4775 33.8487 18.32C33.8911 18.3177 33.9309 18.2986 33.9592 18.2669C33.9876 18.2353 34.0022 18.1937 33.9999 18.1513C33.9976 18.1088 33.9785 18.0691 33.9469 18.0407C33.9152 18.0124 33.8736 17.9977 33.8312 18ZM14.8 18.32H15.0712L14.8243 18.715C14.8084 18.7405 14.7999 18.77 14.8 18.8V33.2C14.8 33.2425 14.8168 33.2831 14.8468 33.3131C14.8768 33.3432 14.9175 33.36 14.96 33.36H24.4587C24.5047 33.4603 24.586 33.6123 24.7668 33.7931C25.032 34.0583 25.48 34.32 26.16 34.32C26.84 34.32 27.2879 34.0583 27.5531 33.7931C27.7339 33.6123 27.8152 33.4603 27.8612 33.36H37.36C37.4024 33.36 37.4431 33.3432 37.4731 33.3131C37.5031 33.2831 37.5199 33.2425 37.52 33.2V18.8C37.52 18.77 37.5115 18.7405 37.4956 18.715L37.2487 18.32H37.52C38.0492 18.32 38.4799 18.7507 38.4799 19.28V33.36C38.4799 33.8893 38.0492 34.32 37.52 34.32H27.92C27.7852 34.32 27.6638 34.4083 27.6181 34.535C27.6069 34.5654 27.3331 35.28 26.16 35.28C24.9868 35.28 24.713 34.5653 24.7031 34.5388C24.6596 34.4079 24.5379 34.32 24.4 34.32H14.8C14.2707 34.32 13.84 33.8893 13.84 33.36V19.28C13.84 18.7507 14.2707 18.32 14.8 18.32ZM22.6293 18.5781C22.5905 18.58 22.5537 18.5959 22.5257 18.6228C22.4978 18.6498 22.4806 18.686 22.4774 18.7247C22.4742 18.7635 22.4852 18.802 22.5083 18.8332C22.5314 18.8645 22.5651 18.8862 22.6031 18.8944C22.9487 18.9769 23.2653 19.0622 23.5543 19.1481C23.5745 19.1541 23.5956 19.1561 23.6165 19.1539C23.6374 19.1518 23.6577 19.1455 23.6762 19.1355C23.6947 19.1255 23.711 19.1119 23.7243 19.0956C23.7375 19.0793 23.7474 19.0605 23.7534 19.0403C23.7594 19.0202 23.7614 18.9991 23.7592 18.9781C23.757 18.9572 23.7507 18.937 23.7407 18.9185C23.7307 18.9 23.7172 18.8836 23.7008 18.8704C23.6845 18.8572 23.6657 18.8473 23.6456 18.8413C23.351 18.7537 23.0281 18.667 22.6768 18.5831C22.6613 18.5791 22.6453 18.5774 22.6293 18.5781ZM24.2287 19.0388C24.1915 19.0409 24.1561 19.0559 24.1288 19.0813C24.1015 19.1067 24.0839 19.1409 24.0791 19.1779C24.0742 19.2149 24.0825 19.2524 24.1024 19.2839C24.1223 19.3155 24.1526 19.3391 24.1881 19.3506C24.2987 19.3885 24.4056 19.4256 24.505 19.4619C24.5247 19.4691 24.5457 19.4724 24.5667 19.4715C24.5877 19.4706 24.6083 19.4656 24.6274 19.4568C24.6464 19.4479 24.6636 19.4354 24.6778 19.4199C24.692 19.4045 24.7031 19.3863 24.7103 19.3666C24.7175 19.3468 24.7208 19.3259 24.7199 19.3049C24.719 19.2839 24.714 19.2632 24.7051 19.2442C24.6963 19.2251 24.6838 19.208 24.6683 19.1938C24.6528 19.1795 24.6347 19.1685 24.615 19.1613C24.5127 19.124 24.4039 19.0858 24.2918 19.0475C24.2716 19.0404 24.2501 19.0374 24.2287 19.0388ZM18.4725 20.24C18.4304 20.2404 18.3902 20.2574 18.3605 20.2872C18.3309 20.317 18.3142 20.3573 18.314 20.3994C18.3138 20.4415 18.3302 20.4819 18.3596 20.512C18.3891 20.542 18.4291 20.5593 18.4712 20.56C21.3638 20.7172 23.3048 21.2634 24.505 21.7019C24.5247 21.7091 24.5457 21.7124 24.5667 21.7115C24.5877 21.7106 24.6083 21.7056 24.6274 21.6968C24.6464 21.6879 24.6636 21.6754 24.6778 21.6599C24.692 21.6445 24.7031 21.6263 24.7103 21.6066C24.7175 21.5868 24.7208 21.5659 24.7199 21.5449C24.719 21.5239 24.714 21.5032 24.7051 21.4842C24.6963 21.4651 24.6838 21.448 24.6683 21.4338C24.6528 21.4195 24.6347 21.4085 24.615 21.4013C23.3908 20.954 21.4137 20.399 18.4887 20.24C18.4833 20.2397 18.4779 20.2397 18.4725 20.24ZM33.8312 20.24C33.4964 20.2584 33.1754 20.2824 32.8656 20.31C32.8446 20.3119 32.8243 20.3179 32.8057 20.3276C32.7871 20.3374 32.7705 20.3507 32.7571 20.3669C32.7436 20.383 32.7335 20.4016 32.7272 20.4217C32.7209 20.4417 32.7187 20.4628 32.7206 20.4838C32.7224 20.5047 32.7284 20.5251 32.7382 20.5437C32.7479 20.5623 32.7613 20.5788 32.7774 20.5923C32.7935 20.6057 32.8122 20.6159 32.8322 20.6221C32.8523 20.6284 32.8734 20.6307 32.8943 20.6288C33.2008 20.6014 33.5179 20.5781 33.8487 20.56C33.8911 20.5577 33.9309 20.5386 33.9592 20.5069C33.9876 20.4753 34.0022 20.4337 33.9999 20.3913C33.9976 20.3488 33.9785 20.3091 33.9469 20.2807C33.9152 20.2524 33.8736 20.2377 33.8312 20.24ZM31.9174 20.4131C31.9152 20.4133 31.9129 20.4135 31.9106 20.4138C31.9068 20.4141 31.9031 20.4145 31.8993 20.415C31.5613 20.4585 31.2387 20.5068 30.9331 20.5594C30.9115 20.5619 30.8906 20.5687 30.8717 20.5796C30.8529 20.5904 30.8364 20.6049 30.8233 20.6223C30.8103 20.6397 30.8009 20.6596 30.7958 20.6807C30.7907 20.7019 30.7899 20.7238 30.7936 20.7453C30.7972 20.7667 30.8052 20.7872 30.8171 20.8054C30.8289 20.8237 30.8443 20.8393 30.8624 20.8514C30.8805 20.8635 30.9009 20.8718 30.9223 20.8757C30.9436 20.8797 30.9656 20.8792 30.9868 20.8744C31.2873 20.8227 31.6066 20.7755 31.9406 20.7325C31.9829 20.7295 32.0223 20.7097 32.0501 20.6776C32.0779 20.6455 32.0918 20.6036 32.0887 20.5613C32.0856 20.5189 32.0659 20.4795 32.0338 20.4517C32.0016 20.424 31.9598 20.4101 31.9174 20.4131ZM29.6856 20.8181C29.6712 20.8179 29.657 20.8196 29.6431 20.8231C28.8581 21.0103 28.2151 21.2147 27.705 21.4013C27.6852 21.4085 27.6671 21.4195 27.6516 21.4338C27.6361 21.448 27.6236 21.4651 27.6148 21.4842C27.6059 21.5032 27.6009 21.5239 27.6 21.5449C27.5991 21.5659 27.6024 21.5868 27.6096 21.6066C27.6168 21.6263 27.6279 21.6445 27.6421 21.6599C27.6563 21.6754 27.6735 21.6879 27.6925 21.6968C27.7116 21.7056 27.7322 21.7106 27.7532 21.7115C27.7742 21.7124 27.7952 21.7091 27.815 21.7019C28.3147 21.5192 28.9447 21.3185 29.7168 21.1344C29.7551 21.126 29.7889 21.1038 29.8119 21.0721C29.8349 21.0404 29.8455 21.0014 29.8416 20.9624C29.8378 20.9234 29.8198 20.8872 29.791 20.8606C29.7622 20.834 29.7247 20.8189 29.6856 20.8181ZM18.4725 22.48C18.4304 22.4804 18.3902 22.4974 18.3605 22.5272C18.3309 22.557 18.3142 22.5973 18.314 22.6394C18.3138 22.6815 18.3302 22.7219 18.3596 22.752C18.3891 22.782 18.4291 22.7993 18.4712 22.8C19.0376 22.8309 19.5667 22.8768 20.0618 22.9338C20.104 22.9386 20.1464 22.9264 20.1796 22.9C20.2128 22.8736 20.2342 22.835 20.239 22.7928C20.2438 22.7506 20.2317 22.7083 20.2052 22.675C20.1788 22.6418 20.1403 22.6204 20.0981 22.6156C19.5967 22.558 19.0615 22.5112 18.4887 22.48C18.4833 22.4797 18.4779 22.4797 18.4725 22.48ZM33.8312 22.48C30.9062 22.6393 28.9292 23.194 27.705 23.6413C27.6852 23.6485 27.6671 23.6595 27.6516 23.6738C27.6361 23.688 27.6236 23.7051 27.6148 23.7242C27.6059 23.7432 27.6009 23.7639 27.6 23.7849C27.5991 23.8059 27.6024 23.8268 27.6096 23.8466C27.6168 23.8663 27.6279 23.8845 27.6421 23.8999C27.6563 23.9154 27.6735 23.9279 27.6925 23.9368C27.7116 23.9456 27.7322 23.9506 27.7532 23.9515C27.7742 23.9524 27.7952 23.9491 27.815 23.9419C29.0151 23.5034 30.9561 22.9575 33.8487 22.8C33.8911 22.7977 33.9309 22.7786 33.9592 22.7469C33.9876 22.7153 34.0022 22.6737 33.9999 22.6313C33.9976 22.5888 33.9785 22.5491 33.9469 22.5207C33.9152 22.4924 33.8736 22.4777 33.8312 22.48ZM21.355 22.7963C21.3149 22.7969 21.2765 22.8126 21.2474 22.8402C21.2183 22.8678 21.2007 22.9053 21.1979 22.9453C21.1952 22.9853 21.2075 23.0248 21.2326 23.0562C21.2576 23.0875 21.2935 23.1083 21.3331 23.1144C22.7146 23.3517 23.7544 23.6678 24.505 23.9419C24.5247 23.9491 24.5457 23.9524 24.5667 23.9515C24.5877 23.9506 24.6083 23.9456 24.6274 23.9368C24.6464 23.9279 24.6636 23.9154 24.6778 23.8999C24.692 23.8845 24.7031 23.8663 24.7103 23.8466C24.7175 23.8268 24.7208 23.8059 24.7199 23.7849C24.719 23.7639 24.714 23.7432 24.7051 23.7242C24.6963 23.7051 24.6838 23.688 24.6683 23.6738C24.6528 23.6595 24.6347 23.6485 24.615 23.6413C23.8494 23.3617 22.7887 23.0402 21.3868 22.7994C21.3763 22.7973 21.3657 22.7962 21.355 22.7963ZM18.4725 24.72C18.4304 24.7204 18.3902 24.7374 18.3605 24.7672C18.3309 24.797 18.3142 24.8373 18.314 24.8794C18.3138 24.9215 18.3302 24.9619 18.3596 24.992C18.3891 25.022 18.4291 25.0393 18.4712 25.04C21.3638 25.1972 23.3048 25.7434 24.505 26.1819C24.5247 26.1891 24.5457 26.1924 24.5667 26.1915C24.5877 26.1906 24.6083 26.1856 24.6274 26.1768C24.6464 26.1679 24.6636 26.1554 24.6778 26.1399C24.692 26.1245 24.7031 26.1063 24.7103 26.0866C24.7175 26.0668 24.7208 26.0459 24.7199 26.0249C24.719 26.0039 24.714 25.9832 24.7051 25.9642C24.6963 25.9451 24.6838 25.928 24.6683 25.9138C24.6528 25.8995 24.6347 25.8885 24.615 25.8813C23.3908 25.434 21.4137 24.879 18.4887 24.72C18.4833 24.7197 18.4779 24.7197 18.4725 24.72ZM33.8312 24.72C32.2872 24.804 31.01 24.9985 29.9656 25.2288C29.9447 25.2329 29.9249 25.2412 29.9073 25.2531C29.8897 25.2651 29.8746 25.2804 29.863 25.2982C29.8513 25.316 29.8434 25.336 29.8395 25.3569C29.8357 25.3778 29.8361 25.3993 29.8407 25.4201C29.8452 25.4408 29.8539 25.4605 29.8662 25.4779C29.8784 25.4953 29.894 25.51 29.9121 25.5213C29.9301 25.5326 29.9502 25.5402 29.9712 25.5436C29.9922 25.547 30.0136 25.5462 30.0343 25.5413C31.0622 25.3146 32.3219 25.1231 33.8487 25.04C33.8911 25.0377 33.9309 25.0186 33.9592 24.9869C33.9876 24.9553 34.0022 24.9137 33.9999 24.8713C33.9976 24.8288 33.9785 24.7891 33.9469 24.7607C33.9152 24.7324 33.8736 24.7177 33.8312 24.72ZM28.7168 25.5544C28.7024 25.5548 28.6881 25.5571 28.6743 25.5613C28.3105 25.6694 27.9871 25.7781 27.705 25.8813C27.6852 25.8885 27.6671 25.8995 27.6516 25.9138C27.6361 25.928 27.6236 25.9451 27.6148 25.9642C27.6059 25.9832 27.6009 26.0039 27.6 26.0249C27.5991 26.0459 27.6024 26.0668 27.6096 26.0866C27.6168 26.1063 27.6279 26.1245 27.6421 26.1399C27.6563 26.1554 27.6735 26.1679 27.6925 26.1768C27.7116 26.1856 27.7322 26.1906 27.7532 26.1915C27.7742 26.1924 27.7952 26.1891 27.815 26.1819C28.0909 26.0809 28.4081 25.9744 28.7656 25.8681C28.803 25.8574 28.8353 25.8333 28.8563 25.8005C28.8772 25.7676 28.8855 25.7283 28.8795 25.6898C28.8735 25.6513 28.8537 25.6163 28.8238 25.5913C28.7938 25.5664 28.7558 25.5533 28.7168 25.5544ZM18.4725 26.96C18.4304 26.9604 18.3902 26.9774 18.3605 27.0072C18.3309 27.037 18.3142 27.0773 18.314 27.1194C18.3138 27.1615 18.3302 27.2019 18.3596 27.232C18.3891 27.262 18.4291 27.2793 18.4712 27.28C19.998 27.3631 21.2577 27.5546 22.2856 27.7813C22.3063 27.7862 22.3277 27.787 22.3487 27.7836C22.3697 27.7802 22.3898 27.7726 22.4078 27.7613C22.4259 27.75 22.4415 27.7353 22.4537 27.7179C22.466 27.7005 22.4747 27.6808 22.4792 27.6601C22.4838 27.6393 22.4842 27.6178 22.4804 27.5969C22.4765 27.576 22.4686 27.556 22.4569 27.5382C22.4453 27.5204 22.4302 27.5051 22.4126 27.4931C22.395 27.4812 22.3752 27.4729 22.3543 27.4688C21.3099 27.2385 20.0327 27.044 18.4887 26.96C18.4833 26.9597 18.4779 26.9597 18.4725 26.96ZM33.8312 26.96C30.9062 27.1193 28.9292 27.674 27.705 28.1213C27.6852 28.1285 27.6671 28.1395 27.6516 28.1538C27.6361 28.168 27.6236 28.1851 27.6148 28.2042C27.6059 28.2232 27.6009 28.2439 27.6 28.2649C27.5991 28.2859 27.6024 28.3068 27.6096 28.3266C27.6168 28.3463 27.6279 28.3645 27.6421 28.3799C27.6563 28.3954 27.6735 28.4079 27.6925 28.4168C27.7116 28.4256 27.7322 28.4306 27.7532 28.4315C27.7742 28.4324 27.7952 28.4291 27.815 28.4219C29.0151 27.9834 30.9561 27.4375 33.8487 27.28C33.8911 27.2777 33.9309 27.2586 33.9592 27.2269C33.9876 27.1953 34.0022 27.1537 33.9999 27.1113C33.9976 27.0688 33.9785 27.0291 33.9469 27.0007C33.9152 26.9724 33.8736 26.9577 33.8312 26.96ZM23.5981 27.7944C23.5596 27.7945 23.5224 27.8086 23.4934 27.8339C23.4644 27.8592 23.4456 27.8942 23.4402 27.9323C23.4349 27.9704 23.4435 28.0092 23.4645 28.0415C23.4854 28.0738 23.5173 28.0975 23.5543 28.1081C23.9117 28.2144 24.2288 28.3212 24.505 28.4219C24.5247 28.4291 24.5457 28.4324 24.5667 28.4315C24.5877 28.4306 24.6083 28.4256 24.6274 28.4168C24.6464 28.4079 24.6636 28.3954 24.6778 28.3799C24.692 28.3645 24.7031 28.3463 24.7103 28.3266C24.7175 28.3068 24.7208 28.2859 24.7199 28.2649C24.719 28.2439 24.714 28.2232 24.7051 28.2042C24.6963 28.1851 24.6838 28.168 24.6683 28.1538C24.6528 28.1395 24.6347 28.1285 24.615 28.1213C24.3331 28.0185 24.0095 27.9094 23.6456 27.8013C23.6302 27.7966 23.6142 27.7943 23.5981 27.7944ZM18.4725 29.2C18.4304 29.2004 18.3902 29.2174 18.3605 29.2472C18.3309 29.277 18.3142 29.3173 18.314 29.3594C18.3138 29.4015 18.3302 29.4419 18.3596 29.472C18.3891 29.502 18.4291 29.5193 18.4712 29.52C21.3638 29.6772 23.3048 30.2234 24.505 30.6619C24.5247 30.6691 24.5457 30.6724 24.5667 30.6715C24.5877 30.6706 24.6083 30.6656 24.6274 30.6568C24.6464 30.6479 24.6636 30.6354 24.6778 30.6199C24.692 30.6045 24.7031 30.5863 24.7103 30.5666C24.7175 30.5468 24.7208 30.5259 24.7199 30.5049C24.719 30.4839 24.714 30.4632 24.7051 30.4442C24.6963 30.4251 24.6838 30.408 24.6683 30.3938C24.6528 30.3795 24.6347 30.3685 24.615 30.3613C23.3908 29.914 21.4137 29.359 18.4887 29.2C18.4833 29.1997 18.4779 29.1997 18.4725 29.2ZM33.8312 29.2C30.9062 29.3593 28.9292 29.914 27.705 30.3613C27.6852 30.3685 27.6671 30.3795 27.6516 30.3938C27.6361 30.408 27.6236 30.4251 27.6148 30.4442C27.6059 30.4632 27.6009 30.4839 27.6 30.5049C27.5991 30.5259 27.6024 30.5468 27.6096 30.5666C27.6168 30.5863 27.6279 30.6045 27.6421 30.6199C27.6563 30.6354 27.6735 30.6479 27.6925 30.6568C27.7116 30.6656 27.7322 30.6706 27.7532 30.6715C27.7742 30.6724 27.7952 30.6691 27.815 30.6619C29.0151 30.2234 30.9561 29.6775 33.8487 29.52C33.8911 29.5177 33.9309 29.4986 33.9592 29.4669C33.9876 29.4353 34.0022 29.3937 33.9999 29.3513C33.9976 29.3088 33.9785 29.2691 33.9469 29.2407C33.9152 29.2124 33.8736 29.1977 33.8312 29.2ZM26.1575 29.8375C26.1364 29.8378 26.1157 29.8423 26.0964 29.8507C26.0771 29.859 26.0597 29.8711 26.045 29.8861C26.0304 29.9012 26.0189 29.9191 26.0112 29.9386C26.0034 29.9581 25.9996 29.979 26 30V30.64C25.9997 30.6612 26.0036 30.6823 26.0115 30.7019C26.0194 30.7216 26.0311 30.7395 26.046 30.7546C26.0609 30.7697 26.0786 30.7817 26.0982 30.7899C26.1178 30.7981 26.1387 30.8023 26.16 30.8023C26.1812 30.8023 26.2021 30.7981 26.2217 30.7899C26.2413 30.7817 26.259 30.7697 26.2739 30.7546C26.2888 30.7395 26.3005 30.7216 26.3084 30.7019C26.3163 30.6823 26.3203 30.6612 26.32 30.64V30C26.3203 29.9786 26.3163 29.9573 26.3083 29.9374C26.3002 29.9176 26.2883 29.8995 26.2731 29.8844C26.2579 29.8692 26.2399 29.8573 26.22 29.8492C26.2002 29.8412 26.1789 29.8372 26.1575 29.8375ZM26.1575 31.4375C26.1364 31.4378 26.1157 31.4423 26.0964 31.4507C26.0771 31.459 26.0597 31.4711 26.045 31.4861C26.0304 31.5012 26.0189 31.5191 26.0112 31.5386C26.0034 31.5581 25.9996 31.579 26 31.6V31.92C25.9997 31.9412 26.0036 31.9623 26.0115 31.9819C26.0194 32.0016 26.0311 32.0195 26.046 32.0346C26.0609 32.0497 26.0786 32.0617 26.0982 32.0699C26.1178 32.0781 26.1387 32.0823 26.16 32.0823C26.1812 32.0823 26.2021 32.0781 26.2217 32.0699C26.2413 32.0617 26.259 32.0497 26.2739 32.0346C26.2888 32.0195 26.3005 32.0016 26.3084 31.9819C26.3163 31.9623 26.3203 31.9412 26.32 31.92V31.6C26.3203 31.5786 26.3163 31.5573 26.3083 31.5374C26.3002 31.5176 26.2883 31.4995 26.2731 31.4844C26.2579 31.4692 26.2399 31.4573 26.22 31.4492C26.2002 31.4412 26.1789 31.4372 26.1575 31.4375ZM16.6343 31.4413C20.0976 31.4482 22.4598 31.9214 23.9518 32.3925C24.7066 32.6309 25.2344 32.8652 25.5743 33.04H24.585C24.5744 33.0383 24.5637 33.0377 24.5531 33.0381C24.5468 33.0384 24.5405 33.039 24.5343 33.04H15.3018L16.6343 31.4413ZM24.8256 33.36H26.1531H26.1687H27.4943C27.4521 33.4235 27.4011 33.4926 27.3268 33.5669C27.112 33.7817 26.76 34 26.16 34C25.56 34 25.2079 33.7817 24.9931 33.5669C24.9188 33.4926 24.8678 33.4235 24.8256 33.36Z" fill="black"/>
</svg>
