<svg width="28" height="28" viewBox="0 0 28 28" fill="none" xmlns="http://www.w3.org/2000/svg">
<path d="M13.9999 2.33325C9.48959 2.33325 5.83325 5.98959 5.83325 10.4999C5.83325 15.1269 10.9713 21.9566 13.0969 24.5828C13.5636 25.1591 14.4363 25.1591 14.9029 24.5828C17.0286 21.9566 22.1666 15.1269 22.1666 10.4999C22.1666 5.98959 18.5103 2.33325 13.9999 2.33325ZM13.9999 13.4166C12.3888 13.4166 11.0833 12.1111 11.0833 10.4999C11.0833 8.88875 12.3888 7.58325 13.9999 7.58325C15.6111 7.58325 16.9166 8.88875 16.9166 10.4999C16.9166 12.1111 15.6111 13.4166 13.9999 13.4166Z" fill="black"/>
</svg>
