<svg width="139" height="21" viewBox="0 0 139 21" fill="none" xmlns="http://www.w3.org/2000/svg">
<path d="M138.107 8.79485C138.018 8.93699 137.925 9.03915 137.827 9.10134C137.73 9.15464 137.605 9.18129 137.454 9.18129C137.294 9.18129 137.121 9.13687 136.935 9.04803C136.757 8.9592 136.548 8.86148 136.308 8.75487C136.068 8.63938 135.793 8.53722 135.482 8.44839C135.18 8.35955 134.82 8.31513 134.403 8.31513C133.754 8.31513 133.243 8.45283 132.87 8.72822C132.506 9.00361 132.324 9.36341 132.324 9.80759C132.324 10.1008 132.417 10.3495 132.604 10.5538C132.799 10.7493 133.052 10.9225 133.363 11.0735C133.683 11.2245 134.043 11.3622 134.443 11.4866C134.843 11.6021 135.247 11.7309 135.655 11.873C136.073 12.0152 136.482 12.1795 136.881 12.3661C137.281 12.5438 137.636 12.7747 137.947 13.059C138.267 13.3344 138.52 13.6676 138.707 14.0584C138.902 14.4493 139 14.9201 139 15.4709C139 16.1283 138.88 16.7369 138.64 17.2965C138.409 17.8473 138.063 18.327 137.601 18.7357C137.139 19.1355 136.566 19.4508 135.882 19.6818C135.207 19.9039 134.425 20.0149 133.537 20.0149C133.066 20.0149 132.604 19.9705 132.151 19.8817C131.707 19.8017 131.276 19.6862 130.858 19.5352C130.45 19.3842 130.068 19.2065 129.712 19.0022C129.366 18.7979 129.059 18.5758 128.793 18.3359L129.552 17.0833C129.65 16.9323 129.765 16.8168 129.899 16.7369C130.032 16.6569 130.201 16.6169 130.405 16.6169C130.609 16.6169 130.8 16.6747 130.978 16.7902C131.165 16.9057 131.378 17.03 131.618 17.1633C131.858 17.2965 132.137 17.4209 132.457 17.5364C132.786 17.6519 133.199 17.7096 133.697 17.7096C134.087 17.7096 134.421 17.6652 134.696 17.5764C134.98 17.4787 135.211 17.3543 135.389 17.2033C135.575 17.0522 135.709 16.879 135.789 16.6836C135.877 16.4792 135.922 16.2705 135.922 16.0573C135.922 15.7374 135.824 15.4754 135.629 15.2711C135.442 15.0667 135.189 14.8891 134.869 14.738C134.558 14.587 134.198 14.4538 133.79 14.3383C133.39 14.2139 132.977 14.0806 132.551 13.9385C132.133 13.7964 131.72 13.632 131.311 13.4455C130.911 13.25 130.552 13.0057 130.232 12.7126C129.921 12.4194 129.668 12.0596 129.472 11.6332C129.286 11.2068 129.192 10.6915 129.192 10.0874C129.192 9.52775 129.304 8.99473 129.526 8.48836C129.748 7.98199 130.072 7.54225 130.498 7.16913C130.934 6.78714 131.471 6.48509 132.111 6.263C132.759 6.03202 133.506 5.91653 134.349 5.91653C135.291 5.91653 136.148 6.072 136.921 6.38293C137.694 6.69386 138.338 7.10251 138.853 7.60888L138.107 8.79485Z" fill="black"/>
<path d="M124.337 11.3933C124.337 10.9669 124.275 10.5671 124.151 10.194C124.035 9.81203 123.857 9.47889 123.618 9.19462C123.378 8.91034 123.071 8.68825 122.698 8.52834C122.334 8.35955 121.907 8.27515 121.419 8.27515C120.468 8.27515 119.718 8.54611 119.167 9.08801C118.625 9.62992 118.278 10.3984 118.127 11.3933H124.337ZM118.061 13.3788C118.114 14.0806 118.238 14.6892 118.434 15.2044C118.629 15.7108 118.887 16.1328 119.207 16.4704C119.527 16.799 119.904 17.0478 120.339 17.2166C120.784 17.3765 121.272 17.4564 121.805 17.4564C122.338 17.4564 122.796 17.3943 123.178 17.2699C123.569 17.1455 123.906 17.0078 124.191 16.8568C124.484 16.7058 124.737 16.5681 124.95 16.4437C125.172 16.3193 125.385 16.2571 125.59 16.2571C125.865 16.2571 126.069 16.3593 126.203 16.5636L127.149 17.7629C126.785 18.1893 126.376 18.5491 125.923 18.8423C125.47 19.1266 124.995 19.3576 124.497 19.5352C124.008 19.704 123.506 19.8239 122.991 19.895C122.485 19.9661 121.992 20.0016 121.512 20.0016C120.562 20.0016 119.678 19.8462 118.86 19.5352C118.043 19.2154 117.332 18.749 116.728 18.136C116.124 17.5142 115.649 16.7502 115.302 15.8441C114.956 14.929 114.783 13.8719 114.783 12.6726C114.783 11.7398 114.934 10.8647 115.236 10.0474C115.538 9.22126 115.969 8.50613 116.528 7.90204C117.097 7.28906 117.785 6.8049 118.594 6.44956C119.411 6.09421 120.331 5.91653 121.352 5.91653C122.214 5.91653 123.009 6.05423 123.737 6.32963C124.466 6.60502 125.092 7.00923 125.616 7.54225C126.141 8.06639 126.549 8.7149 126.842 9.48778C127.144 10.2518 127.295 11.1268 127.295 12.1129C127.295 12.6104 127.242 12.948 127.135 13.1256C127.029 13.2944 126.825 13.3788 126.523 13.3788H118.061Z" fill="black"/>
<path d="M112.159 8.79485C112.07 8.93699 111.977 9.03915 111.879 9.10134C111.781 9.15464 111.657 9.18129 111.506 9.18129C111.346 9.18129 111.173 9.13687 110.986 9.04803C110.808 8.9592 110.6 8.86148 110.36 8.75487C110.12 8.63938 109.845 8.53722 109.534 8.44839C109.232 8.35955 108.872 8.31513 108.454 8.31513C107.806 8.31513 107.295 8.45283 106.922 8.72822C106.558 9.00361 106.376 9.36341 106.376 9.80759C106.376 10.1008 106.469 10.3495 106.655 10.5538C106.851 10.7493 107.104 10.9225 107.415 11.0735C107.735 11.2245 108.094 11.3622 108.494 11.4866C108.894 11.6021 109.298 11.7309 109.707 11.873C110.124 12.0152 110.533 12.1795 110.933 12.3661C111.333 12.5438 111.688 12.7747 111.999 13.059C112.319 13.3344 112.572 13.6676 112.758 14.0584C112.954 14.4493 113.052 14.9201 113.052 15.4709C113.052 16.1283 112.932 16.7369 112.692 17.2965C112.461 17.8473 112.114 18.327 111.652 18.7357C111.19 19.1355 110.617 19.4508 109.933 19.6818C109.258 19.9039 108.476 20.0149 107.588 20.0149C107.117 20.0149 106.655 19.9705 106.202 19.8817C105.758 19.8017 105.327 19.6862 104.91 19.5352C104.501 19.3842 104.119 19.2065 103.764 19.0022C103.417 18.7979 103.111 18.5758 102.844 18.3359L103.604 17.0833C103.702 16.9323 103.817 16.8168 103.95 16.7369C104.084 16.6569 104.252 16.6169 104.457 16.6169C104.661 16.6169 104.852 16.6747 105.03 16.7902C105.216 16.9057 105.429 17.03 105.669 17.1633C105.909 17.2965 106.189 17.4209 106.509 17.5364C106.837 17.6519 107.251 17.7096 107.748 17.7096C108.139 17.7096 108.472 17.6652 108.747 17.5764C109.032 17.4787 109.263 17.3543 109.44 17.2033C109.627 17.0522 109.76 16.879 109.84 16.6836C109.929 16.4792 109.973 16.2705 109.973 16.0573C109.973 15.7374 109.876 15.4754 109.68 15.2711C109.494 15.0667 109.24 14.8891 108.921 14.738C108.61 14.587 108.25 14.4538 107.841 14.3383C107.442 14.2139 107.028 14.0806 106.602 13.9385C106.185 13.7964 105.771 13.632 105.363 13.4455C104.963 13.25 104.603 13.0057 104.283 12.7126C103.972 12.4194 103.719 12.0596 103.524 11.6332C103.337 11.2068 103.244 10.6915 103.244 10.0874C103.244 9.52775 103.355 8.99473 103.577 8.48836C103.799 7.98199 104.123 7.54225 104.55 7.16913C104.985 6.78714 105.523 6.48509 106.162 6.263C106.811 6.03202 107.557 5.91653 108.401 5.91653C109.343 5.91653 110.2 6.072 110.973 6.38293C111.746 6.69386 112.39 7.10251 112.905 7.60888L112.159 8.79485Z" fill="black"/>
<path d="M100.447 8.79485C100.358 8.93699 100.265 9.03915 100.167 9.10134C100.069 9.15464 99.9449 9.18129 99.7939 9.18129C99.634 9.18129 99.4608 9.13687 99.2742 9.04803C99.0965 8.9592 98.8878 8.86148 98.6479 8.75487C98.4081 8.63938 98.1327 8.53722 97.8217 8.44839C97.5197 8.35955 97.1599 8.31513 96.7424 8.31513C96.0939 8.31513 95.5831 8.45283 95.2099 8.72822C94.8457 9.00361 94.6636 9.36341 94.6636 9.80759C94.6636 10.1008 94.7569 10.3495 94.9434 10.5538C95.1389 10.7493 95.3921 10.9225 95.703 11.0735C96.0228 11.2245 96.3826 11.3622 96.7824 11.4866C97.1821 11.6021 97.5863 11.7309 97.995 11.873C98.4125 12.0152 98.8212 12.1795 99.2209 12.3661C99.6207 12.5438 99.976 12.7747 100.287 13.059C100.607 13.3344 100.86 13.6676 101.047 14.0584C101.242 14.4493 101.34 14.9201 101.34 15.4709C101.34 16.1283 101.22 16.7369 100.98 17.2965C100.749 17.8473 100.402 18.327 99.9405 18.7357C99.4785 19.1355 98.9055 19.4508 98.2215 19.6818C97.5463 19.9039 96.7646 20.0149 95.8762 20.0149C95.4054 20.0149 94.9434 19.9705 94.4904 19.8817C94.0462 19.8017 93.6153 19.6862 93.1978 19.5352C92.7891 19.3842 92.4071 19.2065 92.0518 19.0022C91.7053 18.7979 91.3988 18.5758 91.1323 18.3359L91.8919 17.0833C91.9896 16.9323 92.1051 16.8168 92.2383 16.7369C92.3716 16.6569 92.5404 16.6169 92.7447 16.6169C92.949 16.6169 93.14 16.6747 93.3177 16.7902C93.5043 16.9057 93.7175 17.03 93.9573 17.1633C94.1972 17.2965 94.477 17.4209 94.7968 17.5364C95.1255 17.6519 95.5386 17.7096 96.0361 17.7096C96.427 17.7096 96.7601 17.6652 97.0355 17.5764C97.3198 17.4787 97.5508 17.3543 97.7285 17.2033C97.915 17.0522 98.0483 16.879 98.1282 16.6836C98.2171 16.4792 98.2615 16.2705 98.2615 16.0573C98.2615 15.7374 98.1638 15.4754 97.9683 15.2711C97.7818 15.0667 97.5286 14.8891 97.2088 14.738C96.8978 14.587 96.538 14.4538 96.1294 14.3383C95.7296 14.2139 95.3165 14.0806 94.8901 13.9385C94.4726 13.7964 94.0595 13.632 93.6509 13.4455C93.2511 13.25 92.8913 13.0057 92.5715 12.7126C92.2606 12.4194 92.0074 12.0596 91.8119 11.6332C91.6254 11.2068 91.5321 10.6915 91.5321 10.0874C91.5321 9.52775 91.6431 8.99473 91.8652 8.48836C92.0873 7.98199 92.4116 7.54225 92.838 7.16913C93.2733 6.78714 93.8108 6.48509 94.4504 6.263C95.0989 6.03202 95.8451 5.91653 96.6891 5.91653C97.6307 5.91653 98.488 6.072 99.2609 6.38293C100.034 6.69386 100.678 7.10251 101.193 7.60888L100.447 8.79485Z" fill="black"/>
<path d="M85.7938 13.9652C84.8433 14.0096 84.0438 14.094 83.3952 14.2184C82.7467 14.3339 82.227 14.4849 81.8362 14.6715C81.4453 14.858 81.1654 15.0757 80.9966 15.3244C80.8279 15.5732 80.7435 15.8441 80.7435 16.1373C80.7435 16.7147 80.9122 17.1278 81.2498 17.3765C81.5963 17.6253 82.0449 17.7497 82.5957 17.7497C83.2709 17.7497 83.8527 17.6297 84.3414 17.3899C84.8388 17.1411 85.323 16.768 85.7938 16.2705V13.9652ZM78.2516 8.03535C79.824 6.5962 81.7162 5.87662 83.9283 5.87662C84.7278 5.87662 85.4429 6.00987 86.0737 6.27638C86.7044 6.53401 87.2374 6.89824 87.6727 7.36908C88.108 7.83103 88.4367 8.38626 88.6588 9.03477C88.8898 9.68328 89.0053 10.394 89.0053 11.1669V19.8018H87.5128C87.2019 19.8018 86.962 19.7574 86.7932 19.6685C86.6245 19.5708 86.4912 19.3798 86.3935 19.0955L86.1003 18.1095C85.7539 18.4204 85.4163 18.6958 85.0876 18.9356C84.7589 19.1666 84.4169 19.3621 84.0615 19.522C83.7062 19.6819 83.3242 19.8018 82.9155 19.8817C82.5158 19.9706 82.0716 20.015 81.583 20.015C81.0055 20.015 80.4725 19.9395 79.9839 19.7885C79.4953 19.6286 79.0733 19.3931 78.718 19.0822C78.3626 18.7713 78.0872 18.3848 77.8918 17.9229C77.6964 17.4609 77.5986 16.9235 77.5986 16.3105C77.5986 15.964 77.6564 15.622 77.7719 15.2844C77.8874 14.938 78.0739 14.6093 78.3315 14.2984C78.5981 13.9874 78.9401 13.6943 79.3576 13.4189C79.7751 13.1435 80.286 12.9036 80.89 12.6993C81.503 12.495 82.2137 12.3306 83.0221 12.2062C83.8305 12.073 84.7544 11.993 85.7938 11.9664V11.1669C85.7938 10.2518 85.5984 9.57667 85.2075 9.14137C84.8166 8.69719 84.2525 8.4751 83.5152 8.4751C82.9821 8.4751 82.538 8.53728 82.1826 8.66165C81.8362 8.78603 81.5297 8.92816 81.2632 9.08807C80.9966 9.23909 80.7523 9.37679 80.5303 9.50116C80.317 9.62553 80.0772 9.68772 79.8107 9.68772C79.5797 9.68772 79.3843 9.62997 79.2243 9.51449C79.0644 9.39012 78.9356 9.24798 78.8379 9.08807L78.2516 8.03535Z" fill="black"/>
<path d="M75.2921 0V19.8017H72.0007V0H75.2921Z" fill="black"/>
<path d="M68.0928 15.2578C68.2882 15.2578 68.4615 15.3333 68.6125 15.4843L70.025 17.0167C69.2432 17.9851 68.2794 18.7269 67.1334 19.2421C65.9963 19.7574 64.6282 20.015 63.0291 20.015C61.5988 20.015 60.3107 19.7707 59.1647 19.2821C58.0276 18.7935 57.0548 18.1139 56.2464 17.2433C55.438 16.3727 54.8161 15.3333 54.3808 14.1251C53.9544 12.9169 53.7412 11.5977 53.7412 10.1674C53.7412 8.71938 53.9722 7.39571 54.4341 6.19641C54.8961 4.98823 55.5446 3.94884 56.3797 3.07824C57.2236 2.20764 58.2275 1.53248 59.3912 1.05276C60.555 0.564156 61.8431 0.319855 63.2556 0.319855C64.6593 0.319855 65.903 0.55083 66.9868 1.01278C68.0795 1.47473 69.0078 2.07882 69.7718 2.82505L68.5725 4.49074C68.5015 4.59735 68.4082 4.69063 68.2927 4.77058C68.1861 4.85053 68.0351 4.89051 67.8396 4.89051C67.7064 4.89051 67.5687 4.85498 67.4265 4.78391C67.2844 4.70395 67.1289 4.61067 66.9601 4.50407C66.7913 4.38858 66.5959 4.26421 66.3738 4.13096C66.1517 3.9977 65.8941 3.87777 65.6009 3.77117C65.3078 3.65568 64.9657 3.5624 64.5749 3.49133C64.1929 3.41138 63.7487 3.3714 63.2423 3.3714C62.3806 3.3714 61.5899 3.52686 60.8704 3.83779C60.1597 4.13984 59.5467 4.58402 59.0314 5.17035C58.5162 5.74779 58.1164 6.45848 57.8321 7.30243C57.5479 8.1375 57.4057 9.09249 57.4057 10.1674C57.4057 11.2512 57.5568 12.2151 57.8588 13.0591C58.1697 13.903 58.5873 14.6137 59.1114 15.1911C59.6355 15.7686 60.253 16.2128 60.9636 16.5237C61.6743 16.8257 62.4383 16.9768 63.2556 16.9768C63.7442 16.9768 64.184 16.9501 64.5749 16.8968C64.9746 16.8435 65.3389 16.7591 65.6676 16.6436C66.0051 16.5281 66.3205 16.3816 66.6137 16.2039C66.9157 16.0173 67.2133 15.7908 67.5065 15.5243C67.5953 15.4443 67.6886 15.3821 67.7863 15.3377C67.884 15.2844 67.9862 15.2578 68.0928 15.2578Z" fill="black"/>
<path d="M41.5956 8.50175C42.022 7.68445 42.5284 7.04482 43.1147 6.58287C43.701 6.11203 44.3939 5.87662 45.1935 5.87662C45.8242 5.87662 46.3306 6.01431 46.7126 6.28971L46.4994 8.75493C46.4549 8.91484 46.3883 9.03033 46.2995 9.1014C46.2195 9.16358 46.1085 9.19467 45.9663 9.19467C45.8331 9.19467 45.6332 9.17246 45.3667 9.12805C45.1091 9.08363 44.8559 9.06142 44.6071 9.06142C44.2429 9.06142 43.9187 9.11472 43.6344 9.22133C43.3501 9.32793 43.0925 9.48339 42.8615 9.68772C42.6394 9.88316 42.4395 10.123 42.2618 10.4073C42.0931 10.6916 41.9332 11.0158 41.7821 11.3801V19.8018H38.4907V6.1298H40.4229C40.7605 6.1298 40.9959 6.19199 41.1292 6.31636C41.2624 6.43185 41.3513 6.64506 41.3957 6.95599L41.5956 8.50175Z" fill="black"/>
<path d="M32.1796 13.9652C31.229 14.0096 30.4295 14.094 29.781 14.2184C29.1325 14.3339 28.6128 14.4849 28.2219 14.6715C27.831 14.858 27.5512 15.0757 27.3824 15.3244C27.2136 15.5732 27.1292 15.8441 27.1292 16.1373C27.1292 16.7147 27.298 17.1278 27.6356 17.3765C27.982 17.6253 28.4307 17.7497 28.9814 17.7497C29.6566 17.7497 30.2385 17.6297 30.7271 17.3899C31.2246 17.1411 31.7087 16.768 32.1796 16.2705V13.9652ZM24.6373 8.03535C26.2097 6.5962 28.102 5.87662 30.314 5.87662C31.1135 5.87662 31.8287 6.00987 32.4594 6.27638C33.0902 6.53401 33.6232 6.89824 34.0585 7.36908C34.4938 7.83103 34.8225 8.38626 35.0446 9.03477C35.2755 9.68328 35.391 10.394 35.391 11.1669V19.8018H33.8986C33.5876 19.8018 33.3478 19.7574 33.179 19.6685C33.0102 19.5708 32.8769 19.3798 32.7792 19.0955L32.4861 18.1095C32.1396 18.4204 31.802 18.6958 31.4733 18.9356C31.1446 19.1666 30.8026 19.3621 30.4473 19.522C30.0919 19.6819 29.7099 19.8018 29.3013 19.8817C28.9015 19.9706 28.4573 20.015 27.9687 20.015C27.3913 20.015 26.8582 19.9395 26.3696 19.7885C25.881 19.6286 25.4591 19.3931 25.1037 19.0822C24.7484 18.7713 24.473 18.3848 24.2775 17.9229C24.0821 17.4609 23.9844 16.9235 23.9844 16.3105C23.9844 15.964 24.0421 15.622 24.1576 15.2844C24.2731 14.938 24.4597 14.6093 24.7173 14.2984C24.9838 13.9874 25.3258 13.6943 25.7433 13.4189C26.1609 13.1435 26.6717 12.9036 27.2758 12.6993C27.8888 12.495 28.5995 12.3306 29.4079 12.2062C30.2163 12.073 31.1402 11.993 32.1796 11.9664V11.1669C32.1796 10.2518 31.9841 9.57667 31.5932 9.14137C31.2024 8.69719 30.6383 8.4751 29.9009 8.4751C29.3679 8.4751 28.9237 8.53728 28.5684 8.66165C28.2219 8.78603 27.9154 8.92816 27.6489 9.08807C27.3824 9.23909 27.1381 9.37679 26.916 9.50116C26.7028 9.62553 26.4629 9.68772 26.1964 9.68772C25.9654 9.68772 25.77 9.62997 25.6101 9.51449C25.4502 9.39012 25.3214 9.24798 25.2236 9.08807L24.6373 8.03535Z" fill="black"/>
<path d="M19.5984 20.0149C18.408 20.0149 17.493 19.6818 16.8533 19.0155C16.2226 18.3404 15.9072 17.412 15.9072 16.2305V8.59496H14.508C14.3304 8.59496 14.1793 8.53722 14.055 8.42173C13.9306 8.30624 13.8684 8.13301 13.8684 7.90204V6.59613L16.0671 6.23635L16.76 2.5052C16.8045 2.32752 16.8889 2.18983 17.0132 2.09211C17.1376 1.99439 17.2975 1.94553 17.493 1.94553H19.1986V6.24967H22.8498V8.59496H19.1986V16.004C19.1986 16.4304 19.3008 16.7635 19.5051 17.0034C19.7183 17.2432 20.007 17.3632 20.3713 17.3632C20.5756 17.3632 20.7444 17.341 20.8776 17.2965C21.0198 17.2432 21.1397 17.1899 21.2374 17.1366C21.344 17.0833 21.4373 17.0345 21.5173 16.99C21.5972 16.9367 21.6772 16.9101 21.7571 16.9101C21.8548 16.9101 21.9348 16.9367 21.997 16.99C22.0592 17.0345 22.1258 17.1055 22.1969 17.2033L23.183 18.8023C22.7032 19.2021 22.1524 19.5041 21.5306 19.7085C20.9087 19.9128 20.2647 20.0149 19.5984 20.0149Z" fill="black"/>
<path d="M11.7931 4.03768C11.6865 4.22423 11.571 4.36193 11.4466 4.45077C11.3311 4.53072 11.1846 4.5707 11.0069 4.5707C10.8203 4.5707 10.616 4.50407 10.3939 4.37081C10.1807 4.22868 9.92308 4.07321 9.62103 3.90442C9.31899 3.73563 8.96364 3.58461 8.55499 3.45135C8.15522 3.30921 7.67995 3.23815 7.12916 3.23815C6.63167 3.23815 6.19637 3.30033 5.82326 3.4247C5.45014 3.54019 5.13477 3.70454 4.87714 3.91775C4.6284 4.13095 4.44184 4.38858 4.31747 4.69063C4.1931 4.98379 4.13091 5.30804 4.13091 5.66339C4.13091 6.11646 4.25529 6.49402 4.50403 6.79606C4.76166 7.09811 5.09924 7.35573 5.51677 7.56894C5.9343 7.78215 6.40958 7.97315 6.9426 8.14194C7.47562 8.31073 8.02197 8.49284 8.58164 8.68828C9.14131 8.87484 9.68766 9.09694 10.2207 9.35456C10.7537 9.60331 11.229 9.92312 11.6465 10.314C12.064 10.696 12.3972 11.1668 12.6459 11.7265C12.9036 12.2862 13.0324 12.9658 13.0324 13.7653C13.0324 14.6359 12.8813 15.4532 12.5793 16.2172C12.2861 16.9723 11.8508 17.6342 11.2734 18.2027C10.7048 18.7624 10.0075 19.2066 9.18129 19.5353C8.35511 19.8551 7.40899 20.015 6.34295 20.015C5.72998 20.015 5.12589 19.9528 4.53068 19.8284C3.93547 19.7129 3.36247 19.5441 2.81169 19.3221C2.26978 19.1 1.75897 18.8335 1.27925 18.5225C0.799532 18.2116 0.373115 17.8651 0 17.4831L1.05272 15.7641C1.14155 15.6398 1.25704 15.5376 1.39918 15.4577C1.54132 15.3688 1.69234 15.3244 1.85225 15.3244C2.07434 15.3244 2.3142 15.4177 2.57183 15.6042C2.82945 15.7819 3.13594 15.9818 3.49129 16.2039C3.84664 16.426 4.25973 16.6303 4.73056 16.8169C5.21028 16.9945 5.78328 17.0834 6.44956 17.0834C7.47118 17.0834 8.26183 16.8435 8.8215 16.3638C9.38117 15.8752 9.66101 15.1778 9.66101 14.2717C9.66101 13.7653 9.5322 13.3522 9.27457 13.0324C9.02582 12.7126 8.69269 12.4461 8.27515 12.2329C7.85762 12.0108 7.38234 11.8242 6.84932 11.6732C6.3163 11.5222 5.7744 11.3578 5.22361 11.1802C4.67282 11.0025 4.13091 10.7893 3.59789 10.5405C3.06487 10.2918 2.58959 9.96754 2.17206 9.56777C1.75453 9.168 1.41695 8.67052 1.15932 8.07531C0.910578 7.47122 0.786206 6.72943 0.786206 5.84995C0.786206 5.14814 0.923903 4.46409 1.1993 3.79782C1.48358 3.13154 1.89223 2.54078 2.42525 2.02552C2.95827 1.51027 3.61566 1.09718 4.39742 0.786248C5.17919 0.475319 6.07644 0.319855 7.08918 0.319855C8.22629 0.319855 9.27457 0.497528 10.234 0.852875C11.1934 1.20822 12.0107 1.70571 12.6859 2.34533L11.7931 4.03768Z" fill="black"/>
</svg>
