<svg width="28" height="28" viewBox="0 0 28 28" fill="none" xmlns="http://www.w3.org/2000/svg">
<path d="M4.66658 4.66675C3.88959 4.66675 3.20448 5.04834 2.78215 5.63517C2.49748 6.02951 2.62324 6.58847 3.03507 6.84513L13.2799 13.2299C13.7209 13.5052 14.279 13.5052 14.72 13.2299L24.9215 6.79045C25.3496 6.51978 25.4564 5.93152 25.1402 5.53719C24.7144 5.00752 24.0647 4.66675 23.3332 4.66675H4.66658ZM25.1015 9.43367C25.0039 9.43475 24.9048 9.46164 24.8121 9.52026L14.72 15.8845C14.279 16.1587 13.7209 16.1576 13.2799 15.8822L3.18547 9.59318C2.81447 9.36218 2.33325 9.62964 2.33325 10.0671V21.0001C2.33325 22.2892 3.37742 23.3334 4.66658 23.3334H23.3332C24.6224 23.3334 25.6666 22.2892 25.6666 21.0001V9.99194C25.6666 9.66294 25.3942 9.43045 25.1015 9.43367Z" fill="black"/>
</svg>
