<svg width="52" height="52" viewBox="0 0 52 52" fill="none" xmlns="http://www.w3.org/2000/svg">
<rect width="52" height="52" rx="26" fill="#F7E370"/>
<path d="M16 14C14.9002 14 14 14.9002 14 16V36C14 37.0998 14.9002 38 16 38H36C37.0998 38 38 37.0998 38 36V16C38 14.9002 37.0998 14 36 14H16ZM16 14.8H25.6C25.6 14.9061 25.6421 15.0078 25.7172 15.0828C25.7922 15.1579 25.8939 15.2 26 15.2C26.1061 15.2 26.2078 15.1579 26.2828 15.0828C26.3579 15.0078 26.4 14.9061 26.4 14.8H36C36.6674 14.8 37.2 15.3326 37.2 16V25.6C37.0939 25.6 36.9922 25.6421 36.9172 25.7172C36.8421 25.7922 36.8 25.8939 36.8 26C36.8 26.1061 36.8421 26.2078 36.9172 26.2828C36.9922 26.3579 37.0939 26.4 37.2 26.4V36C37.2 36.6674 36.6674 37.2 36 37.2H26.4C26.4 37.0939 26.3579 36.9922 26.2828 36.9172C26.2078 36.8421 26.1061 36.8 26 36.8C25.8939 36.8 25.7922 36.8421 25.7172 36.9172C25.6421 36.9922 25.6 37.0939 25.6 37.2H16C15.3326 37.2 14.8 36.6674 14.8 36V26.4C14.9061 26.4 15.0078 26.3579 15.0828 26.2828C15.1579 26.2078 15.2 26.1061 15.2 26C15.2 25.8939 15.1579 25.7922 15.0828 25.7172C15.0078 25.6421 14.9061 25.6 14.8 25.6V16C14.8 15.3326 15.3326 14.8 16 14.8ZM26 16C25.8939 16 25.7922 16.0421 25.7172 16.1172C25.6421 16.1922 25.6 16.2939 25.6 16.4C25.6 16.5061 25.6421 16.6078 25.7172 16.6828C25.7922 16.7579 25.8939 16.8 26 16.8C26.1061 16.8 26.2078 16.7579 26.2828 16.6828C26.3579 16.6078 26.4 16.5061 26.4 16.4C26.4 16.2939 26.3579 16.1922 26.2828 16.1172C26.2078 16.0421 26.1061 16 26 16ZM19.9938 16.7945C19.8878 16.7962 19.7868 16.8398 19.713 16.9158C19.6392 16.9918 19.5985 17.094 19.6 17.2V19.6H17.2C17.147 19.5993 17.0944 19.609 17.0452 19.6288C16.996 19.6486 16.9512 19.6779 16.9135 19.7151C16.8757 19.7524 16.8458 19.7967 16.8253 19.8456C16.8048 19.8945 16.7943 19.947 16.7943 20C16.7943 20.053 16.8048 20.1055 16.8253 20.1544C16.8458 20.2033 16.8757 20.2476 16.9135 20.2849C16.9512 20.3221 16.996 20.3514 17.0452 20.3712C17.0944 20.391 17.147 20.4007 17.2 20.4H19.6V22.8C19.5993 22.853 19.609 22.9056 19.6288 22.9548C19.6486 23.004 19.6779 23.0488 19.7151 23.0865C19.7524 23.1243 19.7967 23.1542 19.8456 23.1747C19.8945 23.1952 19.947 23.2057 20 23.2057C20.053 23.2057 20.1055 23.1952 20.1544 23.1747C20.2033 23.1542 20.2476 23.1243 20.2849 23.0865C20.3221 23.0488 20.3514 23.004 20.3712 22.9548C20.391 22.9056 20.4007 22.853 20.4 22.8V20.4H22.8C22.853 20.4007 22.9056 20.391 22.9548 20.3712C23.004 20.3514 23.0488 20.3221 23.0865 20.2849C23.1243 20.2476 23.1542 20.2033 23.1747 20.1544C23.1952 20.1055 23.2057 20.053 23.2057 20C23.2057 19.947 23.1952 19.8945 23.1747 19.8456C23.1542 19.7967 23.1243 19.7524 23.0865 19.7151C23.0488 19.6779 23.004 19.6486 22.9548 19.6288C22.9056 19.609 22.853 19.5993 22.8 19.6H20.4V17.2C20.4007 17.1465 20.3907 17.0934 20.3706 17.0438C20.3504 16.9942 20.3205 16.9492 20.2826 16.9114C20.2447 16.8736 20.1996 16.8437 20.15 16.8237C20.1004 16.8036 20.0473 16.7937 19.9938 16.7945ZM26 17.6C25.8939 17.6 25.7922 17.6421 25.7172 17.7172C25.6421 17.7922 25.6 17.8939 25.6 18C25.6 18.1061 25.6421 18.2078 25.7172 18.2828C25.7922 18.3579 25.8939 18.4 26 18.4C26.1061 18.4 26.2078 18.3579 26.2828 18.2828C26.3579 18.2078 26.4 18.1061 26.4 18C26.4 17.8939 26.3579 17.7922 26.2828 17.7172C26.2078 17.6421 26.1061 17.6 26 17.6ZM26 19.2C25.8939 19.2 25.7922 19.2421 25.7172 19.3172C25.6421 19.3922 25.6 19.4939 25.6 19.6C25.6 19.7061 25.6421 19.8078 25.7172 19.8828C25.7922 19.9579 25.8939 20 26 20C26.1061 20 26.2078 19.9579 26.2828 19.8828C26.3579 19.8078 26.4 19.7061 26.4 19.6C26.4 19.4939 26.3579 19.3922 26.2828 19.3172C26.2078 19.2421 26.1061 19.2 26 19.2ZM28.8 19.6C28.747 19.5993 28.6944 19.609 28.6452 19.6288C28.596 19.6486 28.5512 19.6779 28.5135 19.7151C28.4757 19.7524 28.4458 19.7967 28.4253 19.8456C28.4048 19.8945 28.3943 19.947 28.3943 20C28.3943 20.053 28.4048 20.1055 28.4253 20.1544C28.4458 20.2033 28.4757 20.2476 28.5135 20.2849C28.5512 20.3221 28.596 20.3514 28.6452 20.3712C28.6944 20.391 28.747 20.4007 28.8 20.4H34.4C34.453 20.4007 34.5056 20.391 34.5548 20.3712C34.604 20.3514 34.6488 20.3221 34.6865 20.2849C34.7243 20.2476 34.7542 20.2033 34.7747 20.1544C34.7952 20.1055 34.8057 20.053 34.8057 20C34.8057 19.947 34.7952 19.8945 34.7747 19.8456C34.7542 19.7967 34.7243 19.7524 34.6865 19.7151C34.6488 19.6779 34.604 19.6486 34.5548 19.6288C34.5056 19.609 34.453 19.5993 34.4 19.6H28.8ZM26 20.8C25.8939 20.8 25.7922 20.8421 25.7172 20.9172C25.6421 20.9922 25.6 21.0939 25.6 21.2C25.6 21.3061 25.6421 21.4078 25.7172 21.4828C25.7922 21.5579 25.8939 21.6 26 21.6C26.1061 21.6 26.2078 21.5579 26.2828 21.4828C26.3579 21.4078 26.4 21.3061 26.4 21.2C26.4 21.0939 26.3579 20.9922 26.2828 20.9172C26.2078 20.8421 26.1061 20.8 26 20.8ZM26 22.4C25.8939 22.4 25.7922 22.4421 25.7172 22.5172C25.6421 22.5922 25.6 22.6939 25.6 22.8C25.6 22.9061 25.6421 23.0078 25.7172 23.0828C25.7922 23.1579 25.8939 23.2 26 23.2C26.1061 23.2 26.2078 23.1579 26.2828 23.0828C26.3579 23.0078 26.4 22.9061 26.4 22.8C26.4 22.6939 26.3579 22.5922 26.2828 22.5172C26.2078 22.4421 26.1061 22.4 26 22.4ZM26 24C25.8939 24 25.7922 24.0421 25.7172 24.1172C25.6421 24.1922 25.6 24.2939 25.6 24.4C25.6 24.5061 25.6421 24.6078 25.7172 24.6828C25.7922 24.7579 25.8939 24.8 26 24.8C26.1061 24.8 26.2078 24.7579 26.2828 24.6828C26.3579 24.6078 26.4 24.5061 26.4 24.4C26.4 24.2939 26.3579 24.1922 26.2828 24.1172C26.2078 24.0421 26.1061 24 26 24ZM16.4 25.6C16.2939 25.6 16.1922 25.6421 16.1172 25.7172C16.0421 25.7922 16 25.8939 16 26C16 26.1061 16.0421 26.2078 16.1172 26.2828C16.1922 26.3579 16.2939 26.4 16.4 26.4C16.5061 26.4 16.6078 26.3579 16.6828 26.2828C16.7579 26.2078 16.8 26.1061 16.8 26C16.8 25.8939 16.7579 25.7922 16.6828 25.7172C16.6078 25.6421 16.5061 25.6 16.4 25.6ZM18 25.6C17.8939 25.6 17.7922 25.6421 17.7172 25.7172C17.6421 25.7922 17.6 25.8939 17.6 26C17.6 26.1061 17.6421 26.2078 17.7172 26.2828C17.7922 26.3579 17.8939 26.4 18 26.4C18.1061 26.4 18.2078 26.3579 18.2828 26.2828C18.3579 26.2078 18.4 26.1061 18.4 26C18.4 25.8939 18.3579 25.7922 18.2828 25.7172C18.2078 25.6421 18.1061 25.6 18 25.6ZM19.6 25.6C19.4939 25.6 19.3922 25.6421 19.3172 25.7172C19.2421 25.7922 19.2 25.8939 19.2 26C19.2 26.1061 19.2421 26.2078 19.3172 26.2828C19.3922 26.3579 19.4939 26.4 19.6 26.4C19.7061 26.4 19.8078 26.3579 19.8828 26.2828C19.9579 26.2078 20 26.1061 20 26C20 25.8939 19.9579 25.7922 19.8828 25.7172C19.8078 25.6421 19.7061 25.6 19.6 25.6ZM21.2 25.6C21.0939 25.6 20.9922 25.6421 20.9172 25.7172C20.8421 25.7922 20.8 25.8939 20.8 26C20.8 26.1061 20.8421 26.2078 20.9172 26.2828C20.9922 26.3579 21.0939 26.4 21.2 26.4C21.3061 26.4 21.4078 26.3579 21.4828 26.2828C21.5579 26.2078 21.6 26.1061 21.6 26C21.6 25.8939 21.5579 25.7922 21.4828 25.7172C21.4078 25.6421 21.3061 25.6 21.2 25.6ZM22.8 25.6C22.6939 25.6 22.5922 25.6421 22.5172 25.7172C22.4421 25.7922 22.4 25.8939 22.4 26C22.4 26.1061 22.4421 26.2078 22.5172 26.2828C22.5922 26.3579 22.6939 26.4 22.8 26.4C22.9061 26.4 23.0078 26.3579 23.0828 26.2828C23.1579 26.2078 23.2 26.1061 23.2 26C23.2 25.8939 23.1579 25.7922 23.0828 25.7172C23.0078 25.6421 22.9061 25.6 22.8 25.6ZM24.4 25.6C24.2939 25.6 24.1922 25.6421 24.1172 25.7172C24.0421 25.7922 24 25.8939 24 26C24 26.1061 24.0421 26.2078 24.1172 26.2828C24.1922 26.3579 24.2939 26.4 24.4 26.4C24.5061 26.4 24.6078 26.3579 24.6828 26.2828C24.7579 26.2078 24.8 26.1061 24.8 26C24.8 25.8939 24.7579 25.7922 24.6828 25.7172C24.6078 25.6421 24.5061 25.6 24.4 25.6ZM26 25.6C25.8939 25.6 25.7922 25.6421 25.7172 25.7172C25.6421 25.7922 25.6 25.8939 25.6 26C25.6 26.1061 25.6421 26.2078 25.7172 26.2828C25.7922 26.3579 25.8939 26.4 26 26.4C26.1061 26.4 26.2078 26.3579 26.2828 26.2828C26.3579 26.2078 26.4 26.1061 26.4 26C26.4 25.8939 26.3579 25.7922 26.2828 25.7172C26.2078 25.6421 26.1061 25.6 26 25.6ZM27.6 25.6C27.4939 25.6 27.3922 25.6421 27.3172 25.7172C27.2421 25.7922 27.2 25.8939 27.2 26C27.2 26.1061 27.2421 26.2078 27.3172 26.2828C27.3922 26.3579 27.4939 26.4 27.6 26.4C27.7061 26.4 27.8078 26.3579 27.8828 26.2828C27.9579 26.2078 28 26.1061 28 26C28 25.8939 27.9579 25.7922 27.8828 25.7172C27.8078 25.6421 27.7061 25.6 27.6 25.6ZM29.2 25.6C29.0939 25.6 28.9922 25.6421 28.9172 25.7172C28.8421 25.7922 28.8 25.8939 28.8 26C28.8 26.1061 28.8421 26.2078 28.9172 26.2828C28.9922 26.3579 29.0939 26.4 29.2 26.4C29.3061 26.4 29.4078 26.3579 29.4828 26.2828C29.5579 26.2078 29.6 26.1061 29.6 26C29.6 25.8939 29.5579 25.7922 29.4828 25.7172C29.4078 25.6421 29.3061 25.6 29.2 25.6ZM30.8 25.6C30.6939 25.6 30.5922 25.6421 30.5172 25.7172C30.4421 25.7922 30.4 25.8939 30.4 26C30.4 26.1061 30.4421 26.2078 30.5172 26.2828C30.5922 26.3579 30.6939 26.4 30.8 26.4C30.9061 26.4 31.0078 26.3579 31.0828 26.2828C31.1579 26.2078 31.2 26.1061 31.2 26C31.2 25.8939 31.1579 25.7922 31.0828 25.7172C31.0078 25.6421 30.9061 25.6 30.8 25.6ZM32.4 25.6C32.2939 25.6 32.1922 25.6421 32.1172 25.7172C32.0421 25.7922 32 25.8939 32 26C32 26.1061 32.0421 26.2078 32.1172 26.2828C32.1922 26.3579 32.2939 26.4 32.4 26.4C32.5061 26.4 32.6078 26.3579 32.6828 26.2828C32.7579 26.2078 32.8 26.1061 32.8 26C32.8 25.8939 32.7579 25.7922 32.6828 25.7172C32.6078 25.6421 32.5061 25.6 32.4 25.6ZM34 25.6C33.8939 25.6 33.7922 25.6421 33.7172 25.7172C33.6421 25.7922 33.6 25.8939 33.6 26C33.6 26.1061 33.6421 26.2078 33.7172 26.2828C33.7922 26.3579 33.8939 26.4 34 26.4C34.1061 26.4 34.2078 26.3579 34.2828 26.2828C34.3579 26.2078 34.4 26.1061 34.4 26C34.4 25.8939 34.3579 25.7922 34.2828 25.7172C34.2078 25.6421 34.1061 25.6 34 25.6ZM35.6 25.6C35.4939 25.6 35.3922 25.6421 35.3172 25.7172C35.2421 25.7922 35.2 25.8939 35.2 26C35.2 26.1061 35.2421 26.2078 35.3172 26.2828C35.3922 26.3579 35.4939 26.4 35.6 26.4C35.7061 26.4 35.8078 26.3579 35.8828 26.2828C35.9579 26.2078 36 26.1061 36 26C36 25.8939 35.9579 25.7922 35.8828 25.7172C35.8078 25.6421 35.7061 25.6 35.6 25.6ZM26 27.2C25.8939 27.2 25.7922 27.2421 25.7172 27.3172C25.6421 27.3922 25.6 27.4939 25.6 27.6C25.6 27.7061 25.6421 27.8078 25.7172 27.8828C25.7922 27.9579 25.8939 28 26 28C26.1061 28 26.2078 27.9579 26.2828 27.8828C26.3579 27.8078 26.4 27.7061 26.4 27.6C26.4 27.4939 26.3579 27.3922 26.2828 27.3172C26.2078 27.2421 26.1061 27.2 26 27.2ZM26 28.8C25.8939 28.8 25.7922 28.8421 25.7172 28.9172C25.6421 28.9922 25.6 29.0939 25.6 29.2C25.6 29.3061 25.6421 29.4078 25.7172 29.4828C25.7922 29.5579 25.8939 29.6 26 29.6C26.1061 29.6 26.2078 29.5579 26.2828 29.4828C26.3579 29.4078 26.4 29.3061 26.4 29.2C26.4 29.0939 26.3579 28.9922 26.2828 28.9172C26.2078 28.8421 26.1061 28.8 26 28.8ZM17.9961 29.5961C17.9165 29.5961 17.8388 29.6199 17.7728 29.6643C17.7068 29.7088 17.6555 29.7719 17.6256 29.8456C17.5956 29.9193 17.5883 30.0003 17.6047 30.0782C17.621 30.1561 17.6602 30.2273 17.7172 30.2828L19.4344 32L17.7172 33.7172C17.6788 33.754 17.6481 33.7982 17.627 33.847C17.6059 33.8959 17.5948 33.9485 17.5942 34.0017C17.5937 34.0549 17.6038 34.1077 17.6239 34.157C17.644 34.2062 17.6737 34.251 17.7114 34.2886C17.749 34.3263 17.7938 34.356 17.843 34.3761C17.8923 34.3962 17.9451 34.4063 17.9983 34.4058C18.0515 34.4052 18.1041 34.3941 18.153 34.373C18.2018 34.3519 18.246 34.3212 18.2828 34.2828L20 32.5656L21.7172 34.2828C21.754 34.3212 21.7982 34.3519 21.847 34.373C21.8959 34.3941 21.9485 34.4052 22.0017 34.4058C22.0549 34.4063 22.1077 34.3962 22.157 34.3761C22.2062 34.356 22.251 34.3263 22.2886 34.2886C22.3263 34.251 22.356 34.2062 22.3761 34.157C22.3962 34.1077 22.4063 34.0549 22.4058 34.0017C22.4052 33.9485 22.3941 33.8959 22.373 33.847C22.3519 33.7982 22.3212 33.754 22.2828 33.7172L20.5656 32L22.2828 30.2828C22.3406 30.2266 22.3801 30.1543 22.3961 30.0753C22.4121 29.9963 22.4038 29.9143 22.3724 29.84C22.341 29.7658 22.2879 29.7028 22.22 29.6593C22.1522 29.6157 22.0728 29.5937 21.9922 29.5961C21.8883 29.5992 21.7896 29.6426 21.7172 29.7172L20 31.4344L18.2828 29.7172C18.2455 29.6789 18.201 29.6484 18.1517 29.6276C18.1025 29.6068 18.0496 29.5961 17.9961 29.5961ZM26 30.4C25.8939 30.4 25.7922 30.4421 25.7172 30.5172C25.6421 30.5922 25.6 30.6939 25.6 30.8C25.6 30.9061 25.6421 31.0078 25.7172 31.0828C25.7922 31.1579 25.8939 31.2 26 31.2C26.1061 31.2 26.2078 31.1579 26.2828 31.0828C26.3579 31.0078 26.4 30.9061 26.4 30.8C26.4 30.6939 26.3579 30.5922 26.2828 30.5172C26.2078 30.4421 26.1061 30.4 26 30.4ZM28.8 30.4C28.747 30.3993 28.6944 30.409 28.6452 30.4288C28.596 30.4486 28.5512 30.4779 28.5135 30.5151C28.4757 30.5524 28.4458 30.5967 28.4253 30.6456C28.4048 30.6945 28.3943 30.747 28.3943 30.8C28.3943 30.853 28.4048 30.9055 28.4253 30.9544C28.4458 31.0033 28.4757 31.0476 28.5135 31.0849C28.5512 31.1221 28.596 31.1514 28.6452 31.1712C28.6944 31.191 28.747 31.2008 28.8 31.2H34.4C34.453 31.2008 34.5056 31.191 34.5548 31.1712C34.604 31.1514 34.6488 31.1221 34.6865 31.0849C34.7243 31.0476 34.7542 31.0033 34.7747 30.9544C34.7952 30.9055 34.8057 30.853 34.8057 30.8C34.8057 30.747 34.7952 30.6945 34.7747 30.6456C34.7542 30.5967 34.7243 30.5524 34.6865 30.5151C34.6488 30.4779 34.604 30.4486 34.5548 30.4288C34.5056 30.409 34.453 30.3993 34.4 30.4H28.8ZM26 32C25.8939 32 25.7922 32.0421 25.7172 32.1172C25.6421 32.1922 25.6 32.2939 25.6 32.4C25.6 32.5061 25.6421 32.6078 25.7172 32.6828C25.7922 32.7579 25.8939 32.8 26 32.8C26.1061 32.8 26.2078 32.7579 26.2828 32.6828C26.3579 32.6078 26.4 32.5061 26.4 32.4C26.4 32.2939 26.3579 32.1922 26.2828 32.1172C26.2078 32.0421 26.1061 32 26 32ZM28.8 32.8C28.747 32.7993 28.6944 32.809 28.6452 32.8288C28.596 32.8486 28.5512 32.8779 28.5135 32.9151C28.4757 32.9524 28.4458 32.9967 28.4253 33.0456C28.4048 33.0945 28.3943 33.147 28.3943 33.2C28.3943 33.253 28.4048 33.3055 28.4253 33.3544C28.4458 33.4033 28.4757 33.4476 28.5135 33.4849C28.5512 33.5221 28.596 33.5514 28.6452 33.5712C28.6944 33.591 28.747 33.6007 28.8 33.6H34.4C34.453 33.6007 34.5056 33.591 34.5548 33.5712C34.604 33.5514 34.6488 33.5221 34.6865 33.4849C34.7243 33.4476 34.7542 33.4033 34.7747 33.3544C34.7952 33.3055 34.8057 33.253 34.8057 33.2C34.8057 33.147 34.7952 33.0945 34.7747 33.0456C34.7542 32.9967 34.7243 32.9524 34.6865 32.9151C34.6488 32.8779 34.604 32.8486 34.5548 32.8288C34.5056 32.809 34.453 32.7993 34.4 32.8H28.8ZM26 33.6C25.8939 33.6 25.7922 33.6421 25.7172 33.7172C25.6421 33.7922 25.6 33.8939 25.6 34C25.6 34.1061 25.6421 34.2078 25.7172 34.2828C25.7922 34.3579 25.8939 34.4 26 34.4C26.1061 34.4 26.2078 34.3579 26.2828 34.2828C26.3579 34.2078 26.4 34.1061 26.4 34C26.4 33.8939 26.3579 33.7922 26.2828 33.7172C26.2078 33.6421 26.1061 33.6 26 33.6ZM26 35.2C25.8939 35.2 25.7922 35.2421 25.7172 35.3172C25.6421 35.3922 25.6 35.4939 25.6 35.6C25.6 35.7061 25.6421 35.8078 25.7172 35.8828C25.7922 35.9579 25.8939 36 26 36C26.1061 36 26.2078 35.9579 26.2828 35.8828C26.3579 35.8078 26.4 35.7061 26.4 35.6C26.4 35.4939 26.3579 35.3922 26.2828 35.3172C26.2078 35.2421 26.1061 35.2 26 35.2Z" fill="black"/>
</svg>
