<svg width="52" height="52" viewBox="0 0 52 52" fill="none" xmlns="http://www.w3.org/2000/svg">
<rect width="52" height="52" rx="26" fill="#56F1D2"/>
<g clip-path="url(#clip0_119_1080)">
<path d="M33.5 10.25C33.075 10.25 32.75 10.575 32.75 11V16C32.75 16.425 33.075 16.75 33.5 16.75H38.5C38.925 16.75 39.25 16.425 39.25 16C39.25 15.575 38.925 15.25 38.5 15.25H34.25V11.75H40.25V15.875C35.85 28.225 24.1 36.5 11 36.5C10.575 36.5 10.25 36.825 10.25 37.25C10.25 37.675 10.575 38 11 38C24.775 38 37.1002 29.2749 41.7002 16.2749V16.25C41.7252 16.175 41.75 16.075 41.75 16V11C41.75 10.575 41.425 10.25 41 10.25H33.5ZM28.5 14C28.2 14 27.9248 14.1751 27.7998 14.4751C27.6748 14.7501 27.7501 15.0748 27.9751 15.2998C29.0501 16.3748 29.0501 18.15 27.9751 19.25C27.7501 19.425 27.6998 19.7499 27.7998 20.0249C27.9248 20.2999 28.2 20.5 28.5 20.5H34.75C35.175 20.5 35.5 20.175 35.5 19.75V18.5C35.5 18.075 35.175 17.75 34.75 17.75C34.325 17.75 34 18.075 34 18.5V19H29.8999C30.3999 17.9 30.3999 16.6 29.8999 15.5H31C31.425 15.5 31.75 15.175 31.75 14.75C31.75 14.325 31.425 14 31 14H28.5ZM41 22.75C40.575 22.75 40.25 23.075 40.25 23.5V40.25H11C10.575 40.25 10.25 40.575 10.25 41C10.25 41.425 10.575 41.75 11 41.75H41C41.425 41.75 41.75 41.425 41.75 41V23.5C41.75 23.075 41.425 22.75 41 22.75ZM37.25 27.75C36.825 27.75 36.5 28.075 36.5 28.5V38.5C36.5 38.925 36.825 39.25 37.25 39.25C37.675 39.25 38 38.925 38 38.5V28.5C38 28.075 37.675 27.75 37.25 27.75ZM33.5 32.75C33.075 32.75 32.75 33.075 32.75 33.5V38.5C32.75 38.925 33.075 39.25 33.5 39.25C33.925 39.25 34.25 38.925 34.25 38.5V33.5C34.25 33.075 33.925 32.75 33.5 32.75ZM29.75 35.25C29.325 35.25 29 35.575 29 36V38.5C29 38.925 29.325 39.25 29.75 39.25C30.175 39.25 30.5 38.925 30.5 38.5V36C30.5 35.575 30.175 35.25 29.75 35.25ZM26.0249 37.7437C25.8312 37.7437 25.6375 37.8127 25.5 37.9502C25.475 37.9752 25.4249 38.0252 25.3999 38.0752C25.3749 38.1252 25.3502 38.1502 25.3252 38.2002C25.3002 38.2502 25.2999 38.3001 25.2749 38.3501C25.2749 38.4001 25.25 38.45 25.25 38.5C25.25 38.7 25.3251 38.8999 25.4751 39.0249C25.6251 39.1749 25.8 39.25 26 39.25C26.05 39.25 26.0999 39.2501 26.1499 39.2251C26.1999 39.2251 26.2498 39.1998 26.2998 39.1748C26.3498 39.1498 26.3998 39.1251 26.4248 39.1001C26.4748 39.0751 26.4998 39.05 26.5498 39C26.6998 38.85 26.7749 38.6751 26.7749 38.4751C26.7749 38.2751 26.6998 38.0752 26.5498 37.9502C26.4123 37.8127 26.2187 37.7437 26.0249 37.7437Z" fill="black"/>
</g>
<defs>
<clipPath id="clip0_119_1080">
<rect width="32" height="32" fill="white" transform="translate(10 10)"/>
</clipPath>
</defs>
</svg>
