<svg width="52" height="52" viewBox="0 0 52 52" fill="none" xmlns="http://www.w3.org/2000/svg">
<rect width="52" height="52" rx="26" fill="#F7E370"/>
<path d="M17.9394 12C14.6641 12 12 14.6641 12 17.9394V34.0606C12 37.3359 14.6641 40 17.9394 40H34.0606C37.3359 40 40 37.3359 40 34.0606V17.9394C40 14.6641 37.3359 12 34.0606 12H17.9394ZM17.9394 12.8485H34.0606C36.8774 12.8485 39.1515 15.1226 39.1515 17.9394V34.0606C39.1515 34.847 38.9695 35.5881 38.6527 36.2523L35.9622 33.5626C36.0884 33.1827 36.1818 32.7878 36.1818 32.3636C36.1818 30.2591 34.4682 28.5455 32.3636 28.5455C30.2591 28.5455 28.5455 30.2591 28.5455 32.3636C28.5455 34.4682 30.2591 36.1818 32.3636 36.1818C32.7878 36.1818 33.1827 36.0884 33.5626 35.9622L36.2523 38.6527C35.5881 38.9695 34.847 39.1515 34.0606 39.1515H17.9394C15.1226 39.1515 12.8485 36.8774 12.8485 34.0606V17.9394C12.8485 17.153 13.0305 16.4119 13.3473 15.7478L16.0378 18.4374C15.9116 18.8173 15.8182 19.2122 15.8182 19.6364C15.8182 21.7409 17.5318 23.4545 19.6364 23.4545C21.7409 23.4545 23.4545 21.7409 23.4545 19.6364C23.4545 17.5318 21.7409 15.8182 19.6364 15.8182C19.2122 15.8182 18.8173 15.9116 18.4374 16.0378L15.7478 13.3473C16.4119 13.0305 17.153 12.8485 17.9394 12.8485ZM15.3558 13.5561L18.3098 16.5101L18.4374 16.4628C18.8148 16.3223 19.2133 16.2424 19.6364 16.2424C21.5112 16.2424 23.0303 17.7615 23.0303 19.6364C23.0303 21.5112 21.5112 23.0303 19.6364 23.0303C17.7615 23.0303 16.2424 21.5112 16.2424 19.6364C16.2424 19.2133 16.3223 18.8148 16.4628 18.4374L16.5101 18.3098L13.5561 15.3558C13.9939 14.6134 14.6134 13.9939 15.3558 13.5561ZM19 14.1212C18.9719 14.1208 18.944 14.126 18.9179 14.1365C18.8918 14.147 18.8681 14.1625 18.8481 14.1823C18.828 14.202 18.8121 14.2255 18.8013 14.2515C18.7904 14.2774 18.7849 14.3052 18.7849 14.3333C18.7849 14.3614 18.7904 14.3893 18.8013 14.4152C18.8121 14.4411 18.828 14.4647 18.8481 14.4844C18.8681 14.5041 18.8918 14.5197 18.9179 14.5302C18.944 14.5407 18.9719 14.5459 19 14.5455H33C33.0281 14.5459 33.056 14.5407 33.0821 14.5302C33.1082 14.5197 33.1319 14.5041 33.1519 14.4844C33.172 14.4647 33.1879 14.4411 33.1987 14.4152C33.2096 14.3893 33.2151 14.3614 33.2151 14.3333C33.2151 14.3052 33.2096 14.2774 33.1987 14.2515C33.1879 14.2255 33.172 14.202 33.1519 14.1823C33.1319 14.1625 33.1082 14.147 33.0821 14.1365C33.056 14.126 33.0281 14.1208 33 14.1212H19ZM32.3636 15.8182C30.2576 15.8182 28.5455 17.5303 28.5455 19.6364C28.5455 20.0588 28.6399 20.4551 28.7667 20.8337L20.8337 28.7667C20.4551 28.6399 20.0588 28.5455 19.6364 28.5455C17.5303 28.5455 15.8182 30.2576 15.8182 32.3636C15.8182 34.4697 17.5303 36.1818 19.6364 36.1818C21.7424 36.1818 23.4545 34.4697 23.4545 32.3636C23.4545 31.9412 23.3601 31.545 23.2333 31.1663L31.1663 23.2333C31.545 23.3601 31.9412 23.4545 32.3636 23.4545C34.4697 23.4545 36.1818 21.7424 36.1818 19.6364C36.1818 17.5303 34.4697 15.8182 32.3636 15.8182ZM32.3636 16.2424C34.2404 16.2424 35.7576 17.7596 35.7576 19.6364C35.7576 21.5131 34.2404 23.0303 32.3636 23.0303C31.9427 23.0303 31.5414 22.9501 31.1671 22.8091L31.0387 22.761L22.761 31.0387L22.8091 31.1671C22.9501 31.5414 23.0303 31.9427 23.0303 32.3636C23.0303 34.2404 21.5131 35.7576 19.6364 35.7576C17.7596 35.7576 16.2424 34.2404 16.2424 32.3636C16.2424 30.4869 17.7596 28.9697 19.6364 28.9697C20.0573 28.9697 20.4586 29.0499 20.8329 29.1909L20.9613 29.239L29.239 20.9613L29.1909 20.8329C29.0499 20.4586 28.9697 20.0573 28.9697 19.6364C28.9697 17.7596 30.4869 16.2424 32.3636 16.2424ZM19.6364 17.9394C18.7025 17.9394 17.9394 18.7025 17.9394 19.6364C17.9394 20.5702 18.7025 21.3333 19.6364 21.3333C20.5702 21.3333 21.3333 20.5702 21.3333 19.6364C21.3333 18.7025 20.5702 17.9394 19.6364 17.9394ZM32.3636 17.9394C31.4289 17.9394 30.6667 18.7017 30.6667 19.6364C30.6667 20.5711 31.4289 21.3333 32.3636 21.3333C33.2983 21.3333 34.0606 20.5711 34.0606 19.6364C34.0606 18.7017 33.2983 17.9394 32.3636 17.9394ZM19.6364 18.3636C20.3401 18.3636 20.9091 18.9326 20.9091 19.6364C20.9091 20.3401 20.3401 20.9091 19.6364 20.9091C18.9326 20.9091 18.3636 20.3401 18.3636 19.6364C18.3636 18.9326 18.9326 18.3636 19.6364 18.3636ZM32.3636 18.3636C33.0691 18.3636 33.6364 18.9309 33.6364 19.6364C33.6364 20.3418 33.0691 20.9091 32.3636 20.9091C31.6582 20.9091 31.0909 20.3418 31.0909 19.6364C31.0909 18.9309 31.6582 18.3636 32.3636 18.3636ZM14.33 18.7846C14.3022 18.785 14.2747 18.7909 14.2491 18.802C14.2235 18.813 14.2004 18.829 14.181 18.849C14.1616 18.869 14.1463 18.8927 14.1361 18.9186C14.1258 18.9445 14.1208 18.9721 14.1212 19V34.0606C14.1212 36.1641 15.8359 37.8788 17.9394 37.8788H33C33.0281 37.8792 33.056 37.874 33.0821 37.8635C33.1082 37.853 33.1319 37.8375 33.1519 37.8177C33.172 37.798 33.1879 37.7745 33.1987 37.7485C33.2096 37.7226 33.2151 37.6948 33.2151 37.6667C33.2151 37.6386 33.2096 37.6107 33.1987 37.5848C33.1879 37.5589 33.172 37.5353 33.1519 37.5156C33.1319 37.4959 33.1082 37.4803 33.0821 37.4698C33.056 37.4593 33.0281 37.4541 33 37.4545H17.9394C16.066 37.4545 14.5455 35.934 14.5455 34.0606V19C14.5459 18.9716 14.5406 18.9434 14.53 18.917C14.5193 18.8907 14.5034 18.8668 14.4833 18.8467C14.4633 18.8266 14.4393 18.8107 14.413 18.8001C14.3866 18.7894 14.3584 18.7841 14.33 18.7846ZM37.6634 18.7846C37.6355 18.785 37.608 18.7909 37.5824 18.802C37.5569 18.813 37.5337 18.829 37.5143 18.849C37.4949 18.869 37.4797 18.8927 37.4694 18.9186C37.4592 18.9445 37.4541 18.9721 37.4545 19V29.1818C37.4541 29.2099 37.4593 29.2378 37.4698 29.2639C37.4803 29.29 37.4959 29.3137 37.5156 29.3338C37.5353 29.3538 37.5589 29.3697 37.5848 29.3805C37.6107 29.3914 37.6386 29.397 37.6667 29.397C37.6948 29.397 37.7226 29.3914 37.7485 29.3805C37.7745 29.3697 37.798 29.3538 37.8177 29.3338C37.8375 29.3137 37.853 29.29 37.8635 29.2639C37.874 29.2378 37.8792 29.2099 37.8788 29.1818V19C37.8792 18.9716 37.874 18.9434 37.8633 18.917C37.8526 18.8907 37.8368 18.8668 37.8167 18.8467C37.7966 18.8266 37.7727 18.8107 37.7463 18.8001C37.72 18.7894 37.6918 18.7841 37.6634 18.7846ZM32.3636 28.9697C34.2385 28.9697 35.7576 30.4888 35.7576 32.3636C35.7576 32.7867 35.6777 33.1852 35.5372 33.5626L35.4899 33.6902L35.5861 33.7863L38.4439 36.6442C38.0061 37.3866 37.3866 38.0061 36.6442 38.4439L33.6902 35.4899L33.5626 35.5372C33.1852 35.6777 32.7867 35.7576 32.3636 35.7576C30.4888 35.7576 28.9697 34.2385 28.9697 32.3636C28.9697 30.4888 30.4888 28.9697 32.3636 28.9697ZM37.6634 30.6634C37.6355 30.6638 37.608 30.6697 37.5824 30.6808C37.5569 30.6918 37.5337 30.7078 37.5143 30.7278C37.4949 30.7478 37.4797 30.7715 37.4694 30.7974C37.4592 30.8233 37.4541 30.8509 37.4545 30.8788V31.7273C37.4541 31.7554 37.4593 31.7833 37.4698 31.8094C37.4803 31.8355 37.4959 31.8592 37.5156 31.8792C37.5353 31.8992 37.5589 31.9151 37.5848 31.926C37.6107 31.9368 37.6386 31.9424 37.6667 31.9424C37.6948 31.9424 37.7226 31.9368 37.7485 31.926C37.7745 31.9151 37.798 31.8992 37.8177 31.8792C37.8375 31.8592 37.853 31.8355 37.8635 31.8094C37.874 31.7833 37.8792 31.7554 37.8788 31.7273V30.8788C37.8792 30.8504 37.874 30.8222 37.8633 30.7958C37.8526 30.7695 37.8368 30.7456 37.8167 30.7255C37.7966 30.7054 37.7727 30.6895 37.7463 30.6788C37.72 30.6682 37.6918 30.6629 37.6634 30.6634ZM19.6364 30.6667C18.7017 30.6667 17.9394 31.4289 17.9394 32.3636C17.9394 33.2983 18.7017 34.0606 19.6364 34.0606C20.5711 34.0606 21.3333 33.2983 21.3333 32.3636C21.3333 31.4289 20.5711 30.6667 19.6364 30.6667ZM32.3636 30.6667C31.4298 30.6667 30.6667 31.4298 30.6667 32.3636C30.6667 33.2975 31.4298 34.0606 32.3636 34.0606C33.2975 34.0606 34.0606 33.2975 34.0606 32.3636C34.0606 31.4298 33.2975 30.6667 32.3636 30.6667ZM19.6364 31.0909C20.3418 31.0909 20.9091 31.6582 20.9091 32.3636C20.9091 33.0691 20.3418 33.6364 19.6364 33.6364C18.9309 33.6364 18.3636 33.0691 18.3636 32.3636C18.3636 31.6582 18.9309 31.0909 19.6364 31.0909ZM32.3636 31.0909C33.0674 31.0909 33.6364 31.6599 33.6364 32.3636C33.6364 33.0674 33.0674 33.6364 32.3636 33.6364C31.6599 33.6364 31.0909 33.0674 31.0909 32.3636C31.0909 31.6599 31.6599 31.0909 32.3636 31.0909ZM37.6634 32.3603C37.6355 32.3608 37.608 32.3667 37.5824 32.3777C37.5569 32.3888 37.5337 32.4048 37.5143 32.4248C37.4949 32.4448 37.4797 32.4684 37.4694 32.4943C37.4592 32.5202 37.4541 32.5479 37.4545 32.5758V33C37.4541 33.0281 37.4593 33.056 37.4698 33.0821C37.4803 33.1082 37.4959 33.1319 37.5156 33.1519C37.5353 33.172 37.5589 33.1879 37.5848 33.1987C37.6107 33.2096 37.6386 33.2151 37.6667 33.2151C37.6948 33.2151 37.7226 33.2096 37.7485 33.1987C37.7745 33.1879 37.798 33.172 37.8177 33.1519C37.8375 33.1319 37.853 33.1082 37.8635 33.0821C37.874 33.056 37.8792 33.0281 37.8788 33V32.5758C37.8792 32.5473 37.874 32.5191 37.8633 32.4928C37.8526 32.4665 37.8368 32.4425 37.8167 32.4224C37.7966 32.4023 37.7727 32.3865 37.7463 32.3758C37.72 32.3651 37.6918 32.3599 37.6634 32.3603Z" fill="black"/>
</svg>
